<svg width="130" height="36" viewBox="0 0 130 36" fill="none" xmlns="http://www.w3.org/2000/svg">
<path fill-rule="evenodd" clip-rule="evenodd" d="M67.1743 7.31933C67.1743 8.76477 65.9911 9.92917 64.5221 9.92917C63.0531 9.92917 61.8699 8.76477 61.8699 7.31933C61.8699 5.87388 63.0124 4.70947 64.5221 4.70947C66.0318 4.74962 67.1743 5.91401 67.1743 7.31933ZM56.2388 12.5791C56.2388 12.8201 56.2388 13.2216 56.2388 13.2216C56.2388 13.2216 54.974 11.6154 52.2808 11.6154C47.8333 11.6154 44.3649 14.9482 44.3649 19.5655C44.3649 24.1428 47.7925 27.5155 52.2808 27.5155C55.0147 27.5155 56.2388 25.8694 56.2388 25.8694V26.552C56.2388 26.8731 56.4837 27.1141 56.8101 27.1141H60.1153V12.0171C60.1153 12.0171 57.0958 12.0171 56.8101 12.0171C56.4837 12.0171 56.2388 12.2981 56.2388 12.5791ZM56.2388 22.2558C55.6268 23.139 54.4027 23.9019 52.9338 23.9019C50.3223 23.9019 48.3228 22.2959 48.3228 19.5655C48.3228 16.8353 50.3223 15.2293 52.9338 15.2293C54.3618 15.2293 55.6676 16.0322 56.2388 16.8754V22.2558ZM62.5635 12.0171H66.4806V27.1141H62.5635V12.0171ZM121.076 11.6154C118.383 11.6154 117.118 13.2216 117.118 13.2216V4.74962H113.201V27.1141C113.201 27.1141 116.22 27.1141 116.506 27.1141C116.832 27.1141 117.077 26.833 117.077 26.552V25.8694C117.077 25.8694 118.342 27.5155 121.036 27.5155C125.483 27.5155 128.952 24.1428 128.952 19.5655C128.952 14.9883 125.483 11.6154 121.076 11.6154ZM120.424 23.8617C118.914 23.8617 117.73 23.0988 117.118 22.2154V16.8353C117.73 16.0322 119.036 15.189 120.424 15.189C123.035 15.189 125.035 16.7951 125.035 19.5254C125.035 22.2558 123.035 23.8617 120.424 23.8617ZM111.161 18.1602V27.1542H107.244V18.6019C107.244 16.1125 106.427 15.1087 104.224 15.1087C103.041 15.1087 101.817 15.711 101.042 16.5943V27.1141H97.1245V12.0171H100.226C100.552 12.0171 100.797 12.2981 100.797 12.5791V13.2216C101.939 12.0572 103.449 11.6154 104.959 11.6154C106.673 11.6154 108.101 12.0974 109.243 13.0609C110.631 14.1851 111.161 15.6306 111.161 18.1602ZM87.6172 11.6154C84.9241 11.6154 83.6592 13.2216 83.6592 13.2216V4.74962H79.742V27.1141C79.742 27.1141 82.7614 27.1141 83.047 27.1141C83.3736 27.1141 83.6183 26.833 83.6183 26.552V25.8694C83.6183 25.8694 84.8832 27.5155 87.5763 27.5155C92.024 27.5155 95.4922 24.1428 95.4922 19.5655C95.5331 14.9883 92.0648 11.6154 87.6172 11.6154ZM86.9642 23.8617C85.4545 23.8617 84.2713 23.0988 83.6592 22.2154V16.8353C84.2713 16.0322 85.5769 15.189 86.9642 15.189C89.5758 15.189 91.5751 16.7951 91.5751 19.5254C91.5751 22.2558 89.5758 23.8617 86.9642 23.8617ZM76.3553 11.6154C77.5385 11.6154 78.1506 11.8163 78.1506 11.8163V15.3898C78.1506 15.3898 74.8863 14.3057 72.8461 16.5943V27.1542H68.9289V12.0171C68.9289 12.0171 71.9484 12.0171 72.234 12.0171C72.5605 12.0171 72.8052 12.2981 72.8052 12.5791V13.2216C73.5397 12.3785 75.1311 11.6154 76.3553 11.6154ZM33.8663 25.1796C33.689 24.7595 33.5118 24.3044 33.3345 23.9194C33.0507 23.2893 32.7672 22.6942 32.5189 22.1343L32.4835 22.0991C30.037 16.8485 27.4131 11.528 24.6474 6.27744L24.541 6.06742C24.2574 5.54236 23.9738 4.9823 23.6901 4.42224C23.3355 3.79216 22.981 3.12709 22.4137 2.49703C21.279 1.09687 19.648 0.326782 17.9106 0.326782C16.1377 0.326782 14.5422 1.09687 13.3721 2.42702C12.8403 3.05709 12.4502 3.72216 12.0956 4.35223C11.812 4.91228 11.5283 5.47235 11.2447 5.99741L11.1382 6.20744C8.40806 11.458 5.74877 16.7786 3.30223 22.0292L3.26677 22.0991C3.01857 22.6592 2.73491 23.2543 2.45126 23.8845C2.27397 24.2694 2.09669 24.6895 1.9194 25.1446C1.45846 26.4397 1.31663 27.6648 1.49391 28.9249C1.88394 31.5503 3.6568 33.7555 6.10335 34.7356C7.02523 35.1207 7.98258 35.2956 8.97538 35.2956C9.25904 35.2956 9.6136 35.2607 9.89726 35.2256C11.0674 35.0856 12.2728 34.7006 13.4429 34.0355C14.8968 33.2303 16.2795 32.0752 17.8397 30.3952C19.3998 32.0752 20.8181 33.2303 22.2363 34.0355C23.4064 34.7006 24.612 35.0856 25.782 35.2256C26.0657 35.2607 26.4203 35.2956 26.7039 35.2956C27.6968 35.2956 28.6895 35.1207 29.576 34.7356C32.058 33.7555 33.7953 31.5153 34.1854 28.9249C34.469 27.6998 34.3272 26.4746 33.8663 25.1796ZM17.908 26.6322C16.0689 24.322 14.8767 22.1477 14.468 20.3129C14.2977 19.5316 14.2637 18.852 14.3658 18.2405C14.434 17.6969 14.6382 17.2214 14.9109 16.8137C15.5579 15.8964 16.6479 15.3188 17.908 15.3188C19.1682 15.3188 20.2922 15.8624 20.9053 16.8137C21.1777 17.2214 21.382 17.6969 21.4502 18.2405C21.5524 18.852 21.5184 19.5655 21.348 20.3129C20.9393 22.1135 19.7472 24.2879 17.908 26.6322ZM31.7314 28.3912C31.4887 30.1698 30.2755 31.7092 28.5768 32.3933C27.7448 32.7352 26.8434 32.8378 25.9422 32.7352C25.0756 32.6328 24.2089 32.359 23.3076 31.846C22.0594 31.1618 20.8115 30.1015 19.3556 28.528C21.6435 25.7574 23.0301 23.2261 23.5501 20.9687C23.7927 19.9083 23.8275 18.9506 23.7235 18.0612C23.5849 17.2061 23.2728 16.4194 22.7875 15.7353C21.713 14.196 19.9102 13.3067 17.8997 13.3067C15.889 13.3067 14.0863 14.2303 13.0117 15.7353C12.5264 16.4194 12.2144 17.2061 12.0757 18.0612C11.937 18.9506 11.9717 19.9426 12.2491 20.9687C12.7691 23.2261 14.1903 25.7916 16.4436 28.5622C15.0224 30.1357 13.7397 31.1961 12.4917 31.8801C11.5903 32.3933 10.7237 32.6669 9.8571 32.7696C8.9211 32.872 8.01979 32.7352 7.22247 32.4275C5.52383 31.7433 4.31052 30.2042 4.06785 28.4254C3.96386 27.5703 4.03318 26.7152 4.37985 25.7574C4.48385 25.4153 4.65717 25.0734 4.8305 24.6628C5.07317 24.1156 5.3505 23.5341 5.62783 22.9526L5.66249 22.8843C8.05446 17.7877 10.6197 12.5884 13.2891 7.52607L13.3931 7.32084C13.6703 6.80776 13.9477 6.26048 14.225 5.7474C14.5024 5.20012 14.8143 4.68703 15.1956 4.24237C15.9236 3.42144 16.8943 2.97678 17.969 2.97678C19.0435 2.97678 20.0142 3.42144 20.7423 4.24237C21.1235 4.68703 21.4355 5.20012 21.713 5.7474C21.9902 6.26048 22.2675 6.80776 22.5448 7.32084L22.6489 7.52607C25.2834 12.6227 27.8488 17.8218 30.2407 22.9184V22.9526C30.518 23.4999 30.7607 24.1156 31.0381 24.6628C31.2114 25.0734 31.3847 25.4153 31.4887 25.7574C31.7661 26.6467 31.87 27.5018 31.7314 28.3912Z" fill="#0F172A"/>
</svg>
