<svg width="107" height="36" viewBox="0 0 107 36" fill="none" xmlns="http://www.w3.org/2000/svg">
<path fill-rule="evenodd" clip-rule="evenodd" d="M14.4598 12.7403V16.425L23.2604 16.4212C22.9905 18.4534 22.3056 19.9414 21.2643 20.9829C19.9809 22.2672 17.978 23.6808 14.4598 23.6808C9.03742 23.6808 4.79459 19.3072 4.79459 13.8799C4.79459 8.4527 9.03742 4.07886 14.4598 4.07886C17.3864 4.07886 19.5225 5.23008 21.1001 6.7102L23.6979 4.11019C21.4995 2.00745 18.5729 0.394165 14.4633 0.394165C7.03794 0.394165 0.792175 6.44785 0.792175 13.8799C0.792175 21.3119 7.03794 27.3655 14.4633 27.3655C18.4709 27.3655 21.4962 26.0499 23.8623 23.5831C26.2959 21.1474 27.0518 17.7291 27.0518 14.9645C27.0518 14.1422 26.9894 13.3827 26.8684 12.7403H14.4598ZM88.6931 26.8369V1.38476H84.976V26.8369H88.6931ZM37.2377 27.3694C42.034 27.3694 45.943 23.6847 45.943 18.6843C45.943 13.6487 42.034 9.99931 37.2377 9.99931C32.4396 9.99931 28.5306 13.6487 28.5306 18.6843C28.5306 23.6847 32.4396 27.3694 37.2377 27.3694ZM37.2377 13.4216C39.8667 13.4216 42.1325 15.5596 42.1325 18.6843C42.1325 21.7739 39.8667 23.9471 37.2377 23.9471C34.6085 23.9471 32.3427 21.7778 32.3427 18.6843C32.3427 15.5596 34.6085 13.4216 37.2377 13.4216ZM56.02 27.3694C60.8163 27.3694 64.7253 23.6847 64.7253 18.6843C64.7253 13.6487 60.8163 9.99931 56.02 9.99931C51.2219 9.99931 47.3129 13.6526 47.3129 18.6843C47.3129 23.6847 51.2219 27.3694 56.02 27.3694ZM56.02 13.4216C58.649 13.4216 60.9148 15.5596 60.9148 18.6843C60.9148 21.7739 58.649 23.9471 56.02 23.9471C53.3908 23.9471 51.125 21.7778 51.125 18.6843C51.125 15.5596 53.3908 13.4216 56.02 13.4216ZM82.7257 10.5279V26.1163C82.7257 32.5303 78.9448 35.15 74.4771 35.15C70.2705 35.15 67.7383 32.3345 66.7836 30.0322L70.1011 28.6499C70.6925 30.0635 72.1404 31.7315 74.4718 31.7315C77.3327 31.7315 79.1055 29.9655 79.1055 26.6411V25.392H78.9723C78.1197 26.4453 76.4765 27.3655 74.4027 27.3655C70.0629 27.3655 66.0865 23.5829 66.0865 18.7157C66.0865 13.8133 70.0629 9.99931 74.4027 9.99931C76.4713 9.99931 78.1162 10.9194 78.9723 11.9415H79.1055V10.5279H82.7257ZM79.3754 18.7157C79.3754 15.6575 77.3362 13.4216 74.7417 13.4216C72.1127 13.4216 69.9108 15.6575 69.9108 18.7157C69.9108 21.7427 72.1127 23.9471 74.7417 23.9471C77.3362 23.9471 79.3754 21.7427 79.3754 18.7157ZM103.179 21.5428L106.137 23.5165C105.182 24.93 102.881 27.3655 98.9049 27.3655C93.9754 27.3655 90.2929 23.5517 90.2929 18.6806C90.2929 13.5157 94.0066 9.99549 98.4794 9.99549C102.983 9.99549 105.185 13.5823 105.906 15.5206L106.301 16.5075L94.6984 21.3158C95.5875 23.0583 96.9677 23.9472 98.9049 23.9472C100.846 23.9472 102.193 22.9918 103.179 21.5428ZM94.0723 18.4181L101.828 15.1955C101.403 14.1108 100.119 13.3551 98.6074 13.3551C96.672 13.3551 93.9754 15.0663 94.0723 18.4181Z" fill="#0F172A"/>
</svg>
