<svg width="143" height="24" viewBox="0 0 143 24" fill="none" xmlns="http://www.w3.org/2000/svg">
<path fill-rule="evenodd" clip-rule="evenodd" d="M19.9023 0.0804443L15.0427 12.775L10.1542 0.0804443H1.79602V23.0877H7.81106V7.87746L13.7174 23.0877H16.3715L22.2454 7.87746V23.0877H28.2605V0.0804443H19.9023Z" fill="#0F172A"/>
<path fill-rule="evenodd" clip-rule="evenodd" d="M40.4583 18.812V17.3254C39.901 16.5325 38.6402 16.1521 37.4575 16.1521C36.0574 16.1521 34.7626 16.7756 34.7626 18.0846C34.7626 19.3936 36.0574 20.0171 37.4575 20.0171C38.6402 20.0171 39.901 19.6031 40.4583 18.8103V18.812ZM40.4583 23.086V21.43C39.4099 22.6686 37.3845 23.5 35.2147 23.5C32.6268 23.5 29.4137 21.7384 29.4137 18.0125C29.4137 13.9799 32.6251 12.6374 35.2147 12.6374C37.4575 12.6374 39.449 13.3582 40.4583 14.6017V12.9458C40.4583 11.4977 39.2043 10.4971 37.0327 10.4971C35.354 10.4971 33.6752 11.1508 32.3142 12.2905L30.3228 8.59812C32.4927 6.77122 35.3931 6.01196 37.9758 6.01196C42.0317 6.01196 45.848 7.49862 45.848 12.6709V23.0877H40.4583V23.086Z" fill="#0F172A"/>
<path fill-rule="evenodd" clip-rule="evenodd" d="M46.5771 20.9138L48.815 17.1225C50.0758 18.222 52.7639 19.3618 54.7621 19.3618C56.3678 19.3618 57.0322 18.9093 57.0322 18.1885C57.0322 16.1202 47.2093 18.2556 47.2093 11.4977C47.2093 8.56459 49.7971 6.01196 54.4427 6.01196C57.3108 6.01196 59.6863 6.90866 61.506 8.21765L59.4484 11.9837C58.4323 11.0133 56.5088 10.1501 54.4834 10.1501C53.2227 10.1501 52.3849 10.6345 52.3849 11.2899C52.3849 13.1168 62.1687 11.2228 62.1687 18.0528C62.1687 21.2205 59.3413 23.5 54.5157 23.5C51.4758 23.5 48.3648 22.4977 46.5771 20.9138Z" fill="#0F172A"/>
<path fill-rule="evenodd" clip-rule="evenodd" d="M74.651 23.0877V13.3884C74.651 11.3603 73.5686 10.705 71.8491 10.705C70.2773 10.705 69.2289 11.5632 68.6037 12.3224V23.086H63.2139V0.0804443H68.6037V8.46073C69.613 7.28749 71.6111 6.01369 74.4386 6.01369C78.2889 6.01369 80.0339 8.15234 80.0339 11.2229V23.0877H74.651Z" fill="#0F172A"/>
<path fill-rule="evenodd" clip-rule="evenodd" d="M92.1696 18.812V17.3254C91.6106 16.5325 90.3516 16.1521 89.1621 16.1521C87.762 16.1521 86.4672 16.7756 86.4672 18.0846C86.4672 19.3936 87.762 20.0171 89.1621 20.0171C90.3516 20.0171 91.6106 19.6031 92.1696 18.8103V18.812ZM92.1696 23.086V21.43C91.1195 22.6686 89.0891 23.5 86.9261 23.5C84.3365 23.5 81.1183 21.7384 81.1183 18.0125C81.1183 13.9799 84.3365 12.6374 86.9261 12.6374C89.1621 12.6374 91.1536 13.3582 92.1696 14.6017V12.9458C92.1696 11.4977 90.9072 10.4971 88.7442 10.4971C87.0654 10.4971 85.3849 11.1508 84.0187 12.2905L82.0274 8.59812C84.1972 6.77122 87.0977 6.01196 89.6872 6.01196C93.7414 6.01196 97.5509 7.49862 97.5509 12.6709V23.0877H92.1696V23.086Z" fill="#0F172A"/>
<path fill-rule="evenodd" clip-rule="evenodd" d="M107.896 18.8121C110.027 18.8121 111.64 17.2533 111.64 14.7393C111.64 12.2587 110.027 10.6999 107.896 10.6999C106.741 10.6999 105.348 11.3218 104.678 12.2184V17.3254C105.348 18.2221 106.743 18.8121 107.896 18.8121ZM99.2952 23.086V0.0804443H104.678V8.39369C105.877 6.87185 107.728 5.99115 109.682 6.01369C113.91 6.01369 117.129 9.29206 117.129 14.7393C117.129 20.3959 113.843 23.5 109.682 23.5C107.791 23.5 106.078 22.7408 104.678 21.1552V23.0877H99.2952V23.086Z" fill="#0F172A"/>
<path fill-rule="evenodd" clip-rule="evenodd" d="M118.213 0.0804443H123.596V23.0877H118.213V0.0804443Z" fill="#0F172A"/>
<path fill-rule="evenodd" clip-rule="evenodd" d="M133.631 10.2876C131.286 10.2876 130.379 11.6687 130.165 12.8737H137.128C136.984 11.7005 136.113 10.2876 133.631 10.2876ZM124.677 14.7392C124.677 9.91382 128.347 6.01196 133.631 6.01196C138.629 6.01196 142.266 9.63225 142.266 15.289V16.5008H130.239C130.623 17.9806 132.023 19.2243 134.467 19.2243C135.656 19.2243 137.614 18.7064 138.597 17.8097L140.932 21.2926C139.258 22.7725 136.458 23.5 133.876 23.5C128.666 23.5 124.677 20.1545 124.677 14.7392Z" fill="#0F172A"/>
</svg>
