<svg width="130" height="48" viewBox="0 0 130 48" fill="none" xmlns="http://www.w3.org/2000/svg">
<path fill-rule="evenodd" clip-rule="evenodd" d="M67.1742 13.3192C67.1742 14.7647 65.991 15.9291 64.522 15.9291C63.053 15.9291 61.8697 14.7647 61.8697 13.3192C61.8697 11.8738 63.0123 10.7093 64.522 10.7093C66.0317 10.7495 67.1742 11.9139 67.1742 13.3192ZM56.2387 18.579C56.2387 18.82 56.2387 19.2215 56.2387 19.2215C56.2387 19.2215 54.9739 17.6153 52.2807 17.6153C47.8331 17.6153 44.3648 20.9481 44.3648 25.5654C44.3648 30.1427 47.7924 33.5154 52.2807 33.5154C55.0146 33.5154 56.2387 31.8692 56.2387 31.8692V32.5519C56.2387 32.873 56.4836 33.1139 56.81 33.1139H60.1151V18.017C60.1151 18.017 57.0956 18.017 56.81 18.017C56.4836 18.017 56.2387 18.2979 56.2387 18.579ZM56.2387 28.2556C55.6267 29.1389 54.4026 29.9017 52.9337 29.9017C50.3222 29.9017 48.3227 28.2957 48.3227 25.5654C48.3227 22.8351 50.3222 21.2291 52.9337 21.2291C54.3617 21.2291 55.6675 22.0321 56.2387 22.8753V28.2556ZM62.5633 18.017H66.4805V33.1139H62.5633V18.017ZM121.076 17.6153C118.383 17.6153 117.118 19.2215 117.118 19.2215V10.7495H113.201V33.1139C113.201 33.1139 116.22 33.1139 116.506 33.1139C116.832 33.1139 117.077 32.8328 117.077 32.5519V31.8692C117.077 31.8692 118.342 33.5154 121.036 33.5154C125.483 33.5154 128.952 30.1427 128.952 25.5654C128.952 20.9882 125.483 17.6153 121.076 17.6153ZM120.424 29.8616C118.914 29.8616 117.73 29.0987 117.118 28.2153V22.8351C117.73 22.0321 119.036 21.1888 120.424 21.1888C123.035 21.1888 125.034 22.7949 125.034 25.5253C125.034 28.2556 123.035 29.8616 120.424 29.8616ZM111.161 24.1601V33.154H107.244V24.6018C107.244 22.1124 106.427 21.1086 104.224 21.1086C103.041 21.1086 101.817 21.7109 101.041 22.5942V33.1139H97.1244V18.017H100.225C100.552 18.017 100.797 18.2979 100.797 18.579V19.2215C101.939 18.0571 103.449 17.6153 104.959 17.6153C106.673 17.6153 108.101 18.0973 109.243 19.0608C110.631 20.185 111.161 21.6305 111.161 24.1601ZM87.6171 17.6153C84.9239 17.6153 83.6591 19.2215 83.6591 19.2215V10.7495H79.7418V33.1139C79.7418 33.1139 82.7612 33.1139 83.0469 33.1139C83.3735 33.1139 83.6182 32.8328 83.6182 32.5519V31.8692C83.6182 31.8692 84.8831 33.5154 87.5762 33.5154C92.0238 33.5154 95.4921 30.1427 95.4921 25.5654C95.533 20.9882 92.0647 17.6153 87.6171 17.6153ZM86.9641 29.8616C85.4544 29.8616 84.2712 29.0987 83.6591 28.2153V22.8351C84.2712 22.0321 85.5768 21.1888 86.9641 21.1888C89.5756 21.1888 91.575 22.7949 91.575 25.5253C91.575 28.2556 89.5756 29.8616 86.9641 29.8616ZM76.3551 17.6153C77.5384 17.6153 78.1505 17.8162 78.1505 17.8162V21.3897C78.1505 21.3897 74.8862 20.3056 72.846 22.5942V33.154H68.9288V18.017C68.9288 18.017 71.9483 18.017 72.2339 18.017C72.5604 18.017 72.805 18.2979 72.805 18.579V19.2215C73.5396 18.3784 75.131 17.6153 76.3551 17.6153ZM33.8662 31.1794C33.6889 30.7594 33.5117 30.3043 33.3343 29.9193C33.0506 29.2892 32.767 28.6941 32.5188 28.1342L32.4834 28.099C30.0368 22.8484 27.413 17.5279 24.6473 12.2773L24.5408 12.0673C24.2573 11.5422 23.9736 10.9822 23.69 10.4221C23.3354 9.79204 22.9808 9.12697 22.4135 8.4969C21.2789 7.09675 19.6478 6.32666 17.9104 6.32666C16.1375 6.32666 14.5421 7.09675 13.372 8.42689C12.8401 9.05697 12.45 9.72204 12.0955 10.3521C11.8119 10.9122 11.5282 11.4722 11.2445 11.9973L11.1381 12.2073C8.40794 17.4579 5.74865 22.7785 3.30211 28.0291L3.26665 28.099C3.01845 28.6591 2.73479 29.2542 2.45114 29.8844C2.27385 30.2693 2.09657 30.6894 1.91928 31.1445C1.45833 32.4396 1.3165 33.6647 1.49379 34.9248C1.88382 37.5501 3.65668 39.7553 6.10323 40.7355C7.02511 41.1206 7.98246 41.2955 8.97526 41.2955C9.25891 41.2955 9.61348 41.2605 9.89714 41.2255C11.0672 41.0855 12.2727 40.7004 13.4428 40.0354C14.8967 39.2302 16.2794 38.0751 17.8396 36.395C19.3997 38.0751 20.8179 39.2302 22.2362 40.0354C23.4063 40.7004 24.6119 41.0855 25.7819 41.2255C26.0656 41.2605 26.4202 41.2955 26.7037 41.2955C27.6966 41.2955 28.6894 41.1206 29.5759 40.7355C32.0579 39.7553 33.7952 37.5152 34.1853 34.9248C34.4689 33.6997 34.327 32.4745 33.8662 31.1794ZM17.9079 32.6321C16.0687 30.3219 14.8766 28.1475 14.4679 26.3128C14.2976 25.5315 14.2635 24.8519 14.3657 24.2404C14.4339 23.6968 14.6381 23.2212 14.9108 22.8135C15.5578 21.8962 16.6478 21.3186 17.9079 21.3186C19.1681 21.3186 20.2921 21.8623 20.9052 22.8135C21.1776 23.2212 21.3819 23.6968 21.4501 24.2404C21.5523 24.8519 21.5182 25.5654 21.3479 26.3128C20.9392 28.1134 19.7471 30.2877 17.9079 32.6321ZM31.7313 34.3911C31.4885 36.1697 30.2753 37.709 28.5767 38.3932C27.7447 38.7351 26.8433 38.8377 25.942 38.7351C25.0754 38.6326 24.2087 38.3589 23.3075 37.8458C22.0593 37.1617 20.8114 36.1014 19.3555 34.5279C21.6434 31.7572 23.03 29.226 23.55 26.9686C23.7926 25.9082 23.8274 24.9505 23.7234 24.0611C23.5848 23.206 23.2727 22.4193 22.7874 21.7352C21.7128 20.1959 19.9101 19.3066 17.8995 19.3066C15.8889 19.3066 14.0861 20.2302 13.0116 21.7352C12.5262 22.4193 12.2143 23.206 12.0756 24.0611C11.9369 24.9505 11.9716 25.9424 12.249 26.9686C12.769 29.226 14.1902 31.7915 16.4435 34.5621C15.0223 36.1356 13.7395 37.1959 12.4916 37.88C11.5902 38.3932 10.7236 38.6668 9.85697 38.7694C8.92098 38.8719 8.01967 38.7351 7.22235 38.4274C5.52371 37.7432 4.3104 36.2041 4.06773 34.4253C3.96374 33.5702 4.03306 32.7151 4.37973 31.7572C4.48373 31.4152 4.65705 31.0733 4.83038 30.6627C5.07305 30.1155 5.35038 29.5339 5.62771 28.9524L5.66237 28.8841C8.05434 23.7875 10.6196 18.5883 13.289 13.526L13.3929 13.3207C13.6702 12.8076 13.9476 12.2604 14.2249 11.7473C14.5023 11.2 14.8142 10.6869 15.1955 10.2423C15.9235 9.42132 16.8942 8.97666 17.9689 8.97666C19.0434 8.97666 20.0141 9.42132 20.7421 10.2423C21.1234 10.6869 21.4353 11.2 21.7128 11.7473C21.9901 12.2604 22.2674 12.8076 22.5447 13.3207L22.6487 13.526C25.2833 18.6225 27.8486 23.8217 30.2406 28.9183V28.9524C30.5179 29.4998 30.7606 30.1155 31.038 30.6627C31.2113 31.0733 31.3846 31.4152 31.4885 31.7572C31.766 32.6466 31.8699 33.5017 31.7313 34.3911Z" fill="#0F172A"/>
</svg>
