<svg width="21" height="20" viewBox="0 0 21 20" fill="none" xmlns="http://www.w3.org/2000/svg">
<g id="SVG">
<path id="Vector" fill-rule="evenodd" clip-rule="evenodd" d="M10.5001 1.66675C5.90008 1.66675 2.16675 5.40008 2.16675 10.0001C2.16675 14.6001 5.90008 18.3334 10.5001 18.3334C15.0917 18.3334 18.8334 14.6001 18.8334 10.0001C18.8334 5.40008 15.0917 1.66675 10.5001 1.66675ZM16.0042 5.50841C17.0298 6.75784 17.5973 8.32039 17.6126 9.93675C17.3784 9.89175 15.0284 9.41258 12.6601 9.71091C12.6059 9.59341 12.5601 9.46675 12.5067 9.34008C12.3593 8.99262 12.2026 8.64917 12.0367 8.31008C14.6576 7.24341 15.8509 5.70675 16.0042 5.50841ZM10.5001 2.89591C12.3084 2.89591 13.9617 3.57341 15.2184 4.68591C15.0917 4.86591 14.0159 6.30341 11.4851 7.25258C10.3192 5.11091 9.02675 3.35675 8.82758 3.08591C9.3758 2.95776 9.93709 2.894 10.5001 2.89591ZM7.47258 3.56508C8.42628 4.88701 9.30731 6.25987 10.1117 7.67758C6.78508 8.56341 3.84758 8.54425 3.53175 8.54425C3.76077 7.46685 4.23559 6.45693 4.91916 5.59324C5.60274 4.72955 6.4766 4.03546 7.47258 3.56508ZM3.37758 10.0084V9.79175C3.68591 9.80008 7.13758 9.84591 10.6901 8.77925C10.8984 9.17675 11.0876 9.58341 11.2684 9.99008C11.1776 10.0176 11.0784 10.0442 10.9884 10.0717C7.31842 11.2551 5.36591 14.4909 5.20341 14.7626C4.02828 13.458 3.37728 11.7643 3.37758 10.0084ZM10.5001 17.1226C8.91794 17.1253 7.38064 16.5971 6.13425 15.6226C6.26091 15.3601 7.70758 12.5759 11.7201 11.1751C11.7384 11.1667 11.7476 11.1667 11.7651 11.1567C12.442 12.9029 12.9507 14.7097 13.2842 16.5526C12.4049 16.931 11.4573 17.125 10.5001 17.1226ZM14.4676 15.9017C14.3959 15.4684 14.0159 13.3892 13.0851 10.8317C15.3176 10.4792 17.2701 11.0576 17.5134 11.1392C17.3614 12.1002 17.0124 13.0193 16.4882 13.8388C15.9641 14.6584 15.2761 15.3607 14.4676 15.9017Z" fill="#64748B"/>
</g>
</svg>
