<svg width="21" height="20" viewBox="0 0 21 20" fill="none" xmlns="http://www.w3.org/2000/svg">
<g id="SVG">
<path id="Vector" fill-rule="evenodd" clip-rule="evenodd" d="M10.5001 1.66675C5.89758 1.66675 2.16675 5.40341 2.16675 10.0142C2.16675 13.7017 4.55425 16.8309 7.86591 17.9342C8.28258 18.0109 8.43425 17.7534 8.43425 17.5317C8.43425 17.3342 8.42758 16.8084 8.42341 16.1126C6.10508 16.6167 5.61591 14.9934 5.61591 14.9934C5.23758 14.0284 4.69091 13.7717 4.69091 13.7717C3.93425 13.2551 4.74841 13.2651 4.74841 13.2651C5.58425 13.3234 6.02425 14.1251 6.02425 14.1251C6.76758 15.4001 7.97508 15.0317 8.44925 14.8184C8.52591 14.2792 8.74091 13.9117 8.97925 13.7034C7.12925 13.4926 5.18341 12.7759 5.18341 9.57758C5.18341 8.66675 5.50841 7.92091 6.04091 7.33758C5.95508 7.12675 5.66925 6.27758 6.12258 5.12925C6.12258 5.12925 6.82258 4.90425 8.41425 5.98425C9.09405 5.79884 9.79545 5.70441 10.5001 5.70341C11.2084 5.70675 11.9209 5.79925 12.5867 5.98425C14.1776 4.90425 14.8759 5.12841 14.8759 5.12841C15.3309 6.27758 15.0442 7.12675 14.9592 7.33758C15.4926 7.92091 15.8159 8.66675 15.8159 9.57758C15.8159 12.7842 13.8667 13.4901 12.0109 13.6967C12.3101 13.9542 12.5759 14.4634 12.5759 15.2426C12.5759 16.3576 12.5659 17.2584 12.5659 17.5317C12.5659 17.7551 12.7159 18.0151 13.1392 17.9334C14.7987 17.3768 16.2412 16.3128 17.263 14.8918C18.2848 13.4707 18.8341 11.7645 18.8334 10.0142C18.8334 5.40341 15.1017 1.66675 10.5001 1.66675Z" fill="#64748B"/>
</g>
</svg>
