<svg width="107" height="36" viewBox="0 0 107 36" fill="none" xmlns="http://www.w3.org/2000/svg">
<g id="SVG">
<path id="Vector" fill-rule="evenodd" clip-rule="evenodd" d="M14.4599 12.7404V16.4252L23.2605 16.4213C22.9906 18.4535 22.3057 19.9416 21.2643 20.983C19.981 22.2674 17.9781 23.6809 14.4599 23.6809C9.03748 23.6809 4.79465 19.3073 4.79465 13.88C4.79465 8.45283 9.03748 4.07898 14.4599 4.07898C17.3865 4.07898 19.5226 5.2302 21.1001 6.71032L23.698 4.11031C21.4996 2.00757 18.573 0.394287 14.4634 0.394287C7.038 0.394287 0.792236 6.44797 0.792236 13.88C0.792236 21.3121 7.038 27.3657 14.4634 27.3657C18.471 27.3657 21.4962 26.05 23.8623 23.5832C26.296 21.1475 27.0518 17.7292 27.0518 14.9647C27.0518 14.1423 26.9895 13.3828 26.8685 12.7404H14.4599ZM88.6931 26.837V1.38488H84.9761V26.837H88.6931ZM37.2378 27.3695C42.0341 27.3695 45.9431 23.6848 45.9431 18.6844C45.9431 13.6488 42.0341 9.99943 37.2378 9.99943C32.4397 9.99943 28.5307 13.6488 28.5307 18.6844C28.5307 23.6848 32.4397 27.3695 37.2378 27.3695ZM37.2378 13.4218C39.8668 13.4218 42.1326 15.5597 42.1326 18.6844C42.1326 21.7741 39.8668 23.9472 37.2378 23.9472C34.6086 23.9472 32.3428 21.7779 32.3428 18.6844C32.3428 15.5597 34.6086 13.4218 37.2378 13.4218ZM56.02 27.3695C60.8163 27.3695 64.7254 23.6848 64.7254 18.6844C64.7254 13.6488 60.8163 9.99943 56.02 9.99943C51.222 9.99943 47.313 13.6528 47.313 18.6844C47.313 23.6848 51.222 27.3695 56.02 27.3695ZM56.02 13.4218C58.6491 13.4218 60.9149 15.5597 60.9149 18.6844C60.9149 21.7741 58.6491 23.9472 56.02 23.9472C53.3909 23.9472 51.1251 21.7779 51.1251 18.6844C51.1251 15.5597 53.3909 13.4218 56.02 13.4218ZM82.7258 10.5281V26.1164C82.7258 32.5304 78.9449 35.1501 74.4771 35.1501C70.2705 35.1501 67.7383 32.3346 66.7837 30.0323L70.1011 28.65C70.6926 30.0636 72.1404 31.7316 74.4719 31.7316C77.3328 31.7316 79.1056 29.9656 79.1056 26.6413V25.3922H78.9724C78.1198 26.4454 76.4766 27.3657 74.4028 27.3657C70.063 27.3657 66.0866 23.583 66.0866 18.7158C66.0866 13.8134 70.063 9.99943 74.4028 9.99943C76.4714 9.99943 78.1163 10.9196 78.9724 11.9417H79.1056V10.5281H82.7258ZM79.3755 18.7158C79.3755 15.6577 77.3363 13.4218 74.7418 13.4218C72.1127 13.4218 69.9108 15.6577 69.9108 18.7158C69.9108 21.7428 72.1127 23.9472 74.7418 23.9472C77.3363 23.9472 79.3755 21.7428 79.3755 18.7158ZM103.179 21.5429L106.137 23.5166C105.182 24.9301 102.881 27.3657 98.905 27.3657C93.9755 27.3657 90.293 23.5518 90.293 18.6807C90.293 13.5158 94.0067 9.99561 98.4795 9.99561C102.983 9.99561 105.185 13.5824 105.907 15.5208L106.301 16.5076L94.6984 21.3159C95.5875 23.0584 96.9677 23.9473 98.905 23.9473C100.846 23.9473 102.193 22.9919 103.179 21.5429ZM94.0723 18.4183L101.828 15.1957C101.403 14.1109 100.119 13.3552 98.6075 13.3552C96.6721 13.3552 93.9755 15.0664 94.0723 18.4183Z" fill="#0F172A"/>
</g>
</svg>
