<svg width="21" height="20" viewBox="0 0 21 20" fill="none" xmlns="http://www.w3.org/2000/svg">
<g id="SVG">
<path id="Vector" fill-rule="evenodd" clip-rule="evenodd" d="M10.7626 1.66675C12.7876 1.66675 13.0826 1.67758 13.9359 1.71675C14.8226 1.75758 15.4284 1.89841 15.9584 2.10425C16.5147 2.31331 17.0186 2.64121 17.4351 3.06508C17.859 3.48156 18.1869 3.9855 18.3959 4.54175C18.6017 5.07175 18.7426 5.67758 18.7834 6.56425C18.8234 7.45341 18.8334 7.73675 18.8334 10.0001V10.0667C18.8334 12.2692 18.8234 12.5559 18.7834 13.4359C18.7426 14.3226 18.6017 14.9284 18.3959 15.4584C18.1869 16.0147 17.859 16.5186 17.4351 16.9351C17.0186 17.359 16.5147 17.6869 15.9584 17.8959C15.4284 18.1017 14.8226 18.2426 13.9359 18.2834C13.0467 18.3234 12.7634 18.3334 10.5001 18.3334H10.4334C8.23091 18.3334 7.94425 18.3234 7.06425 18.2834C6.17758 18.2426 5.57175 18.1017 5.04175 17.8959C4.4855 17.6869 3.98156 17.359 3.56508 16.9351C3.14121 16.5186 2.81331 16.0147 2.60425 15.4584C2.39841 14.9284 2.25758 14.3226 2.21675 13.4359C2.17758 12.5826 2.16675 12.2867 2.16675 10.2626V9.73758C2.16675 7.71258 2.17758 7.41758 2.21675 6.56425C2.25758 5.67758 2.39841 5.07175 2.60425 4.54175C2.81331 3.9855 3.14121 3.48156 3.56508 3.06508C3.98156 2.64121 4.4855 2.31331 5.04175 2.10425C5.57175 1.89841 6.17758 1.75758 7.06425 1.71675C7.91758 1.67758 8.21342 1.66675 10.2376 1.66675H10.7626ZM10.6951 3.16841H10.3051C8.25841 3.16841 7.98508 3.17758 7.13258 3.21675C6.32008 3.25425 5.87925 3.38925 5.58508 3.50341C5.19591 3.65508 4.91841 3.83508 4.62675 4.12675C4.33508 4.41841 4.15508 4.69591 4.00341 5.08508C3.88925 5.37925 3.75341 5.82008 3.71675 6.63258C3.67758 7.48508 3.66841 7.75841 3.66841 9.80508V10.1951C3.66841 12.2417 3.67758 12.5151 3.71675 13.3676C3.75425 14.1801 3.88925 14.6209 4.00341 14.9151C4.15508 15.3034 4.33591 15.5817 4.62675 15.8734C4.91841 16.1651 5.19591 16.3451 5.58508 16.4967C5.87925 16.6109 6.32008 16.7467 7.13258 16.7834C8.01091 16.8234 8.27425 16.8317 10.5001 16.8317H10.5667C12.7309 16.8317 12.9976 16.8234 13.8667 16.7834C14.6801 16.7459 15.1209 16.6109 15.4151 16.4967C15.8034 16.3451 16.0817 16.1651 16.3734 15.8734C16.6651 15.5817 16.8451 15.3042 16.9967 14.9151C17.1109 14.6209 17.2467 14.1801 17.2834 13.3676C17.3234 12.4884 17.3317 12.2259 17.3317 10.0001V9.93341C17.3317 7.76925 17.3234 7.50258 17.2834 6.63341C17.2459 5.82008 17.1109 5.37925 16.9967 5.08508C16.8632 4.72306 16.6502 4.39558 16.3734 4.12675C16.1046 3.84996 15.7771 3.63696 15.4151 3.50341C15.1209 3.38925 14.6801 3.25341 13.8676 3.21675C13.0151 3.17758 12.7417 3.16841 10.6951 3.16841ZM10.5001 5.72091C11.062 5.72091 11.6185 5.8316 12.1376 6.04665C12.6568 6.26169 13.1286 6.5769 13.5259 6.97425C13.9233 7.37161 14.2385 7.84334 14.4535 8.36251C14.6686 8.88169 14.7792 9.43813 14.7792 10.0001C14.7792 10.562 14.6686 11.1185 14.4535 11.6376C14.2385 12.1568 13.9233 12.6286 13.5259 13.0259C13.1286 13.4233 12.6568 13.7385 12.1376 13.9535C11.6185 14.1686 11.062 14.2792 10.5001 14.2792C9.36518 14.2792 8.27675 13.8284 7.47425 13.0259C6.67175 12.2234 6.22091 11.135 6.22091 10.0001C6.22091 8.86518 6.67175 7.77675 7.47425 6.97425C8.27675 6.17175 9.36518 5.72091 10.5001 5.72091ZM10.5001 7.22258C9.76344 7.22258 9.05697 7.51521 8.53609 8.03609C8.01521 8.55697 7.72258 9.26344 7.72258 10.0001C7.72258 10.7367 8.01521 11.4432 8.53609 11.9641C9.05697 12.485 9.76344 12.7776 10.5001 12.7776C11.2367 12.7776 11.9432 12.485 12.4641 11.9641C12.985 11.4432 13.2776 10.7367 13.2776 10.0001C13.2776 9.26344 12.985 8.55697 12.4641 8.03609C11.9432 7.51521 11.2367 7.22258 10.5001 7.22258ZM14.9484 4.55175C15.2136 4.55175 15.468 4.6571 15.6555 4.84464C15.8431 5.03218 15.9484 5.28653 15.9484 5.55175C15.9484 5.81696 15.8431 6.07132 15.6555 6.25885C15.468 6.44639 15.2136 6.55175 14.9484 6.55175C14.6832 6.55175 14.4288 6.44639 14.2413 6.25885C14.0538 6.07132 13.9484 5.81696 13.9484 5.55175C13.9484 5.28653 14.0538 5.03218 14.2413 4.84464C14.4288 4.6571 14.6832 4.55175 14.9484 4.55175Z" fill="#64748B"/>
</g>
</svg>
