<svg width="134" height="36" viewBox="0 0 134 36" fill="none" xmlns="http://www.w3.org/2000/svg">
<g id="SVG">
<path id="Vector" d="M52.2714 13.5862C50.5838 13.5862 49.749 14.9142 49.3659 15.7709C49.1518 16.2492 49.092 16.6274 48.9184 16.6274C48.6738 16.6274 48.849 16.2986 48.6489 15.5697C48.3855 14.6106 47.5919 13.5862 45.9054 13.5862C44.1324 13.5862 43.3733 15.0842 43.0133 15.9074C42.7671 16.4701 42.7668 16.6274 42.5776 16.6274C42.3033 16.6274 42.5305 16.1803 42.6539 15.6548C42.897 14.6202 42.7121 13.8294 42.7121 13.8294H39.9016V24.398H43.7379C43.7379 24.398 43.7379 19.9812 43.7379 19.1397C43.7379 18.1025 44.1718 16.7865 44.9154 16.7865C45.7747 16.7865 45.9467 17.4463 45.9467 18.6683C45.9467 19.7761 45.9467 24.4003 45.9467 24.4003H49.7985C49.7985 24.4003 49.7985 19.9566 49.7985 19.1397C49.7985 18.2165 50.1752 16.7865 50.9816 16.7865C51.8528 16.7865 52.007 17.7135 52.007 18.6683C52.007 19.6231 52.007 24.398 52.007 24.398H55.7895C55.7895 24.398 55.7895 20.2105 55.7895 18.1831C55.7895 15.425 54.8173 13.5862 52.2714 13.5862Z" fill="#0F172A"/>
<path id="Vector_2" d="M117.39 13.5862C115.702 13.5862 114.867 14.9142 114.484 15.7709C114.27 16.2492 114.21 16.6274 114.036 16.6274C113.792 16.6274 113.956 16.2098 113.768 15.5697C113.487 14.6157 112.787 13.5862 111.024 13.5862C109.251 13.5862 108.491 15.0842 108.131 15.9074C107.885 16.4701 107.885 16.6274 107.696 16.6274C107.422 16.6274 107.649 16.1803 107.772 15.6548C108.016 14.6202 107.831 13.8294 107.831 13.8294H105.02V24.398H108.856C108.856 24.398 108.856 19.9812 108.856 19.1397C108.856 18.1025 109.29 16.7865 110.033 16.7865C110.893 16.7865 111.065 17.4463 111.065 18.6683C111.065 19.7761 111.065 24.4003 111.065 24.4003H114.917C114.917 24.4003 114.917 19.9566 114.917 19.1397C114.917 18.2165 115.293 16.7865 116.1 16.7865C116.972 16.7865 117.125 17.7135 117.125 18.6683C117.125 19.6231 117.125 24.398 117.125 24.398H120.908C120.908 24.398 120.908 20.2105 120.908 18.1831C120.908 15.425 119.935 13.5862 117.39 13.5862Z" fill="#0F172A"/>
<path id="Vector_3" d="M61.4088 21.928C60.4914 22.1399 60.0158 21.8573 60.0158 21.2492C60.0158 20.4163 60.8773 20.0827 62.1071 20.0827C62.6492 20.0827 63.159 20.1296 63.159 20.1296C63.159 20.4861 62.3851 21.7027 61.4088 21.928ZM62.3427 13.5886C59.4041 13.5886 57.2954 14.669 57.2954 14.669V17.8448C57.2954 17.8448 59.6241 16.506 61.5131 16.506C63.0209 16.506 63.2061 17.3192 63.1375 17.9941C63.1375 17.9941 62.7027 17.879 61.3756 17.879C58.2489 17.879 56.6704 19.3001 56.6704 21.5788C56.6704 23.7402 58.4443 24.6438 59.9389 24.6438C62.1198 24.6438 63.0785 23.1782 63.3731 22.4829C63.5775 22.0005 63.6148 21.6755 63.7985 21.6755C64.0077 21.6755 63.9372 21.9086 63.9271 22.3888C63.9094 23.2295 63.949 23.865 64.0823 24.4004H66.9738V19.1993C66.9738 15.9519 65.8248 13.5886 62.3427 13.5886Z" fill="#0F172A"/>
<path id="Vector_4" d="M73.2913 24.4004H77.1277V10.6301H73.2913V24.4004Z" fill="#0F172A"/>
<path id="Vector_5" d="M81.3529 19.1161C81.3529 18.1659 82.2357 17.3013 83.8564 17.3013C85.6224 17.3013 87.0427 18.1516 87.3613 18.3446V14.669C87.3613 14.669 86.2391 13.5886 83.4811 13.5886C80.5737 13.5886 78.1526 15.2899 78.1526 18.9516C78.1526 22.6133 80.3498 24.6438 83.4733 24.6438C85.9131 24.6438 87.3675 23.3033 87.3675 23.3033V19.812C86.9074 20.0696 85.6252 20.9593 83.874 20.9593C82.0197 20.9593 81.3529 20.1063 81.3529 19.1161Z" fill="#0F172A"/>
<path id="Vector_6" d="M95.1319 13.5886C92.9111 13.5886 92.0664 15.6933 91.8958 16.0587C91.7252 16.4241 91.6409 16.6342 91.5013 16.6298C91.2588 16.6219 91.4278 16.1812 91.5223 15.8958C91.7009 15.3567 92.0794 13.9423 92.0794 12.2039C92.0794 11.0248 91.92 10.6301 91.92 10.6301H88.6082V24.4004H92.4446C92.4446 24.4004 92.4446 19.9987 92.4446 19.1423C92.4446 18.2857 92.7864 16.7889 93.7528 16.7889C94.5534 16.7889 94.804 17.3822 94.804 18.5766C94.804 19.7708 94.804 24.4004 94.804 24.4004H98.6405C98.6405 24.4004 98.6405 21.1795 98.6405 18.8064C98.6405 16.0935 98.1909 13.5886 95.1319 13.5886Z" fill="#0F172A"/>
<path id="Vector_7" d="M99.8853 13.844V24.4004H103.722V13.844C103.722 13.844 103.077 14.2212 101.807 14.2212C100.538 14.2212 99.8853 13.844 99.8853 13.844Z" fill="#0F172A"/>
<path id="Vector_8" d="M101.792 10.5234C100.495 10.5234 99.4443 11.2097 99.4443 12.0562C99.4443 12.9025 100.495 13.5888 101.792 13.5888C103.089 13.5888 104.141 12.9025 104.141 12.0562C104.141 11.2097 103.089 10.5234 101.792 10.5234Z" fill="#0F172A"/>
<path id="Vector_9" d="M68.2134 13.844V24.4004H72.0497V13.844C72.0497 13.844 71.4049 14.2212 70.1355 14.2212C68.8661 14.2212 68.2134 13.844 68.2134 13.844Z" fill="#0F172A"/>
<path id="Vector_10" d="M70.1207 10.5234C68.8239 10.5234 67.7725 11.2097 67.7725 12.0562C67.7725 12.9025 68.8239 13.5888 70.1207 13.5888C71.4178 13.5888 72.4692 12.9025 72.4692 12.0562C72.4692 11.2097 71.4178 10.5234 70.1207 10.5234Z" fill="#0F172A"/>
<path id="Vector_11" d="M127.477 22.1293C126.598 22.1293 125.951 21.0135 125.951 19.4587C125.951 17.9489 126.615 16.7888 127.447 16.7888C128.514 16.7888 128.97 17.7678 128.97 19.4587C128.97 21.2177 128.55 22.1293 127.477 22.1293ZM128.531 13.5862C126.559 13.5862 125.655 15.065 125.262 15.9074C125.002 16.464 125.016 16.6274 124.826 16.6274C124.551 16.6274 124.779 16.1803 124.903 15.6548C125.145 14.6202 124.96 13.8294 124.96 13.8294H122.15V27.3167H125.987C125.987 27.3167 125.987 25.1098 125.987 23.0406C126.44 23.8107 127.281 24.6336 128.578 24.6336C131.352 24.6336 132.748 22.2865 132.748 19.1152C132.748 15.5208 131.076 13.5862 128.531 13.5862Z" fill="#0F172A"/>
<path id="Vector_12" d="M26.3502 16.7784C26.6081 16.7477 26.8554 16.7462 27.0825 16.7784C27.2139 16.477 27.2366 15.9574 27.1183 15.3914C26.9424 14.5502 26.7046 14.0412 26.2131 14.1204C25.7217 14.1996 25.7035 14.8091 25.8792 15.6503C25.978 16.1234 26.154 16.5278 26.3502 16.7784Z" fill="#0F172A"/>
<path id="Vector_13" d="M22.1297 17.444C22.4813 17.5984 22.6975 17.7007 22.7821 17.6112C22.8365 17.5556 22.8203 17.4492 22.7363 17.312C22.5628 17.0286 22.2056 16.7413 21.8269 16.5799C21.0522 16.2465 20.1283 16.3574 19.4155 16.8694C19.1803 17.0419 18.9572 17.2807 18.9891 17.4257C18.9996 17.4726 19.0348 17.5079 19.1173 17.5195C19.3114 17.5417 19.9893 17.1989 20.7701 17.1511C21.3213 17.1174 21.778 17.2898 22.1297 17.444Z" fill="#0F172A"/>
<path id="Vector_14" d="M21.4201 17.8479C20.9621 17.9202 20.7094 18.0713 20.5472 18.2117C20.4088 18.3326 20.3232 18.4663 20.324 18.5604C20.3243 18.6052 20.3437 18.631 20.359 18.644C20.3799 18.6623 20.4046 18.6725 20.4343 18.6725C20.5378 18.6725 20.7695 18.5795 20.7695 18.5795C21.407 18.3513 21.8274 18.3791 22.2441 18.4265C22.4744 18.4523 22.5832 18.4666 22.6337 18.3877C22.6487 18.365 22.6668 18.316 22.6207 18.2413C22.5134 18.0672 22.0509 17.773 21.4201 17.8479Z" fill="#0F172A"/>
<path id="Vector_15" d="M24.9243 19.3297C25.2351 19.4826 25.5775 19.4225 25.6891 19.1957C25.8005 18.969 25.6387 18.6613 25.3277 18.5083C25.0167 18.3557 24.6743 18.4155 24.5628 18.6423C24.4514 18.8692 24.6131 19.1768 24.9243 19.3297Z" fill="#0F172A"/>
<path id="Vector_16" d="M26.9228 17.5826C26.6701 17.5782 26.4607 17.8557 26.4547 18.2021C26.4488 18.5486 26.6489 18.8329 26.9016 18.8372C27.1542 18.8416 27.3639 18.5641 27.3696 18.2177C27.3755 17.8711 27.1754 17.5868 26.9228 17.5826Z" fill="#0F172A"/>
<path id="Vector_17" d="M9.95321 23.8299C9.89036 23.7512 9.78711 23.7751 9.68711 23.7985C9.61727 23.8148 9.53815 23.8331 9.4514 23.8316C9.26558 23.828 9.10822 23.7488 9.01984 23.6129C8.90474 23.4361 8.91139 23.1726 9.03849 22.871C9.05559 22.8302 9.07579 22.785 9.09778 22.7358C9.30034 22.2811 9.63954 21.5202 9.25875 20.7951C8.97215 20.2495 8.50474 19.9095 7.94275 19.8382C7.40324 19.7698 6.84779 19.9698 6.49349 20.3607C5.93454 20.9773 5.84719 21.8165 5.95529 22.1131C5.99492 22.2216 6.05685 22.2516 6.1019 22.2578C6.19697 22.2705 6.33759 22.2013 6.4257 21.9643C6.43199 21.9473 6.44038 21.9208 6.45089 21.8873C6.4902 21.762 6.56328 21.5287 6.68299 21.3417C6.82734 21.1162 7.05216 20.9609 7.31605 20.9044C7.5849 20.8468 7.85967 20.8981 8.08968 21.0488C8.48129 21.3048 8.63206 21.7846 8.46489 22.2425C8.37849 22.4792 8.23809 22.9319 8.26909 23.304C8.33166 24.0568 8.79472 24.3592 9.21079 24.3914C9.61531 24.4065 9.89802 24.1796 9.96954 24.0135C10.0118 23.9153 9.97612 23.8556 9.95321 23.8299Z" fill="#0F172A"/>
<path id="Vector_18" d="M13.7975 10.0022C15.1169 8.47758 16.741 7.15215 18.1959 6.40792C18.2462 6.38207 18.2996 6.4368 18.2724 6.48613C18.1568 6.69533 17.9345 7.14336 17.8639 7.48315C17.853 7.53611 17.9106 7.57593 17.9552 7.54549C18.8604 6.92851 20.435 6.26738 21.8161 6.18239C21.8754 6.17872 21.9041 6.25483 21.8569 6.29104C21.6469 6.45222 21.4171 6.67514 21.2493 6.90066C21.2207 6.93902 21.2477 6.9943 21.2955 6.99459C22.2653 7.0015 23.6324 7.34088 24.5235 7.8407C24.5838 7.87444 24.5408 7.99118 24.4734 7.97574C23.1252 7.66682 20.9183 7.43236 18.6259 7.9915C16.5793 8.49073 15.0172 9.26137 13.8777 10.0901C13.8201 10.1321 13.7509 10.0561 13.7975 10.0022ZM20.3685 24.7734C20.3684 24.7734 20.3686 24.7737 20.3685 24.7734V24.7734ZM25.8092 25.4157C25.8483 25.3992 25.8754 25.3547 25.8707 25.3104C25.8653 25.2558 25.8166 25.2161 25.762 25.2218C25.762 25.2218 22.9465 25.6384 20.2866 24.6648C20.5764 23.7232 21.3467 24.0631 22.5111 24.1571C24.6099 24.2823 26.4909 23.9757 27.8811 23.5766C29.0858 23.2311 30.6679 22.5494 31.8968 21.5793C32.3113 22.4899 32.4576 23.4919 32.4576 23.4919C32.4576 23.4919 32.7785 23.4346 33.0466 23.5995C33.2999 23.7555 33.4858 24.0796 33.3588 24.9176C33.1004 26.4832 32.435 27.7539 31.3166 28.9229C30.6357 29.6557 29.8092 30.2929 28.8636 30.7562C28.3613 31.02 27.8266 31.2482 27.2617 31.4326C23.0453 32.8097 18.7295 31.2958 17.3383 28.0447C17.2273 27.8003 17.1333 27.5445 17.0594 27.2769C16.4665 25.1345 16.9698 22.5642 18.5431 20.9462C18.5429 20.9462 18.5432 20.946 18.5431 20.9462C18.64 20.8433 18.739 20.721 18.739 20.5683C18.739 20.4407 18.6579 20.3059 18.5875 20.2104C18.037 19.4121 16.1304 18.0515 16.5131 15.4188C16.7879 13.5272 18.4421 12.1952 19.9843 12.2741C20.1146 12.281 20.2452 12.2888 20.3753 12.2965C21.0436 12.3362 21.6266 12.4219 22.1768 12.4448C23.0977 12.4847 23.9258 12.3507 24.9065 11.5336C25.2373 11.2579 25.5025 11.019 25.9514 10.9429C25.9986 10.9348 26.1159 10.8927 26.3505 10.9038C26.5898 10.9166 26.8178 10.9823 27.0226 11.1186C27.809 11.6419 27.9204 12.909 27.9611 13.8361C27.9844 14.3652 28.0485 15.6454 28.0702 16.013C28.1203 16.8532 28.3412 16.9717 28.7881 17.1189C29.0394 17.2018 29.2727 17.2633 29.6166 17.3599C30.6573 17.652 31.2745 17.9485 31.6633 18.3293C31.8954 18.5672 32.0033 18.8202 32.0366 19.0613C32.1592 19.9566 31.3414 21.0626 29.1765 22.0676C26.8099 23.1659 23.9389 23.444 21.9552 23.2232C21.8031 23.2063 21.262 23.145 21.2602 23.1447C19.6734 22.931 18.7683 24.9816 19.7206 26.3865C20.3344 27.2919 22.0061 27.8812 23.6787 27.8815C27.5138 27.8819 30.4614 26.2443 31.5578 24.8299C31.5907 24.7876 31.5939 24.783 31.6456 24.7048C31.6995 24.6236 31.6551 24.5787 31.5879 24.6247C30.692 25.2377 26.7129 27.6713 22.4568 26.9391C22.4568 26.9391 21.9396 26.8541 21.4675 26.6705C21.0924 26.5246 20.3072 26.1633 20.2117 25.3578C23.6465 26.42 25.8092 25.4157 25.8092 25.4157ZM6.9433 17.2528C5.74875 17.4852 4.69589 18.1622 4.05212 19.0973C3.66728 18.7764 2.9504 18.1551 2.82381 17.913C1.79593 15.9614 3.94553 12.1667 5.4472 10.0238C9.15834 4.72783 14.9707 0.719221 17.6615 1.44657C18.0989 1.57037 19.5476 3.25003 19.5476 3.25003C19.5476 3.25003 16.8581 4.74241 14.3638 6.8226C11.0029 9.4104 8.46417 13.1715 6.9433 17.2528ZM8.95058 26.2088C8.76978 26.2397 8.58537 26.252 8.39936 26.2475C6.60203 26.1993 4.66056 24.5812 4.46763 22.6623C4.2544 20.5412 5.33815 18.9088 7.257 18.5218C7.48641 18.4756 7.76365 18.4489 8.06259 18.4645C9.13771 18.5233 10.7221 19.3488 11.084 21.691C11.4046 23.7653 10.8954 25.8772 8.95058 26.2088ZM33.2981 22.453C33.2827 22.3986 33.1824 22.032 33.0446 21.5902C32.9068 21.1482 32.7641 20.8373 32.7641 20.8373C33.3169 20.0097 33.3267 19.2696 33.2532 18.8503C33.1747 18.3307 32.9584 17.8879 32.5224 17.4302C32.0863 16.9725 31.1946 16.5037 29.9413 16.1518C29.7981 16.1115 29.3254 15.9818 29.2839 15.9693C29.2806 15.9421 29.2493 14.4191 29.2209 13.7653C29.2 13.2927 29.1595 12.5547 28.9305 11.8279C28.6577 10.8442 28.1822 9.98338 27.5889 9.43262C29.2264 7.73522 30.2487 5.86524 30.2463 4.26106C30.2415 1.17604 26.4527 0.242639 21.7838 2.17595C21.7789 2.17796 20.8016 2.59236 20.7945 2.59583C20.7901 2.59164 19.0061 0.841147 18.9793 0.817772C13.6559 -3.82541 -2.98789 14.6746 2.33346 19.1677L3.49639 20.153C3.19474 20.9344 3.0762 21.8297 3.17303 22.7925C3.29731 24.0291 3.93516 25.2145 4.96903 26.1302C5.95047 26.9999 7.24083 27.5502 8.49303 27.5491C10.5637 32.3211 15.2952 35.2486 20.8429 35.4133C26.7938 35.5901 31.7891 32.7978 33.8824 27.7818C34.0193 27.4298 34.6003 25.8437 34.6003 24.4435C34.6003 23.0363 33.8047 22.453 33.2981 22.453Z" fill="#0F172A"/>
</g>
</svg>
