<svg width="134" height="36" viewBox="0 0 134 36" fill="none" xmlns="http://www.w3.org/2000/svg">
<path d="M52.2714 13.5862C50.5838 13.5862 49.749 14.9142 49.3659 15.7709C49.1518 16.2492 49.092 16.6274 48.9184 16.6274C48.6738 16.6274 48.849 16.2986 48.6489 15.5697C48.3855 14.6106 47.5919 13.5862 45.9054 13.5862C44.1324 13.5862 43.3733 15.0842 43.0133 15.9074C42.7671 16.4701 42.7668 16.6274 42.5776 16.6274C42.3033 16.6274 42.5305 16.1803 42.6539 15.6548C42.897 14.6202 42.7121 13.8294 42.7121 13.8294H39.9016V24.398H43.7379C43.7379 24.398 43.7379 19.9812 43.7379 19.1397C43.7379 18.1025 44.1718 16.7865 44.9154 16.7865C45.7747 16.7865 45.9467 17.4463 45.9467 18.6683C45.9467 19.7761 45.9467 24.4003 45.9467 24.4003H49.7985C49.7985 24.4003 49.7985 19.9566 49.7985 19.1397C49.7985 18.2165 50.1752 16.7865 50.9816 16.7865C51.8528 16.7865 52.007 17.7135 52.007 18.6683C52.007 19.6231 52.007 24.398 52.007 24.398H55.7895C55.7895 24.398 55.7895 20.2105 55.7895 18.1831C55.7895 15.425 54.8173 13.5862 52.2714 13.5862Z" fill="#0F172A"/>
<path d="M117.39 13.5862C115.702 13.5862 114.867 14.9142 114.484 15.7709C114.27 16.2492 114.21 16.6274 114.036 16.6274C113.792 16.6274 113.955 16.2098 113.768 15.5697C113.486 14.6157 112.787 13.5862 111.024 13.5862C109.251 13.5862 108.491 15.0842 108.131 15.9074C107.885 16.4701 107.885 16.6274 107.696 16.6274C107.422 16.6274 107.649 16.1803 107.772 15.6548C108.015 14.6202 107.831 13.8294 107.831 13.8294H105.02V24.398H108.856C108.856 24.398 108.856 19.9812 108.856 19.1397C108.856 18.1025 109.29 16.7865 110.033 16.7865C110.893 16.7865 111.065 17.4463 111.065 18.6683C111.065 19.7761 111.065 24.4003 111.065 24.4003H114.917C114.917 24.4003 114.917 19.9566 114.917 19.1397C114.917 18.2165 115.293 16.7865 116.1 16.7865C116.972 16.7865 117.125 17.7135 117.125 18.6683C117.125 19.6231 117.125 24.398 117.125 24.398H120.908C120.908 24.398 120.908 20.2105 120.908 18.1831C120.908 15.425 119.935 13.5862 117.39 13.5862Z" fill="#0F172A"/>
<path d="M61.4089 21.928C60.4915 22.1399 60.0159 21.8573 60.0159 21.2492C60.0159 20.4163 60.8775 20.0827 62.1072 20.0827C62.6493 20.0827 63.1591 20.1296 63.1591 20.1296C63.1591 20.4861 62.3852 21.7027 61.4089 21.928ZM62.3429 13.5886C59.4042 13.5886 57.2956 14.669 57.2956 14.669V17.8448C57.2956 17.8448 59.6242 16.506 61.5132 16.506C63.021 16.506 63.2063 17.3192 63.1376 17.9941C63.1376 17.9941 62.7029 17.879 61.3757 17.879C58.249 17.879 56.6705 19.3001 56.6705 21.5788C56.6705 23.7402 58.4445 24.6438 59.939 24.6438C62.1199 24.6438 63.0786 23.1782 63.3732 22.4829C63.5776 22.0005 63.6149 21.6755 63.7986 21.6755C64.0078 21.6755 63.9374 21.9086 63.9272 22.3888C63.9095 23.2295 63.9491 23.865 64.0824 24.4004H66.9739V19.1993C66.9739 15.9519 65.8249 13.5886 62.3429 13.5886Z" fill="#0F172A"/>
<path d="M73.2911 24.4005H77.1276V10.6302H73.2911V24.4005Z" fill="#0F172A"/>
<path d="M81.3529 19.1161C81.3529 18.1659 82.2357 17.3013 83.8564 17.3013C85.6224 17.3013 87.0427 18.1516 87.3613 18.3446V14.669C87.3613 14.669 86.2391 13.5886 83.4811 13.5886C80.5737 13.5886 78.1526 15.2899 78.1526 18.9516C78.1526 22.6133 80.3498 24.6438 83.4733 24.6438C85.9131 24.6438 87.3675 23.3033 87.3675 23.3033V19.812C86.9074 20.0696 85.6252 20.9593 83.874 20.9593C82.0197 20.9593 81.3529 20.1063 81.3529 19.1161Z" fill="#0F172A"/>
<path d="M95.132 13.5888C92.9112 13.5888 92.0665 15.6934 91.8959 16.0588C91.7253 16.4242 91.641 16.6344 91.5014 16.6299C91.2589 16.622 91.4279 16.1813 91.5224 15.896C91.7011 15.3568 92.0795 13.9424 92.0795 12.204C92.0795 11.0249 91.9201 10.6302 91.9201 10.6302H88.6083V24.4005H92.4447C92.4447 24.4005 92.4447 19.9988 92.4447 19.1424C92.4447 18.2858 92.7865 16.7891 93.753 16.7891C94.5535 16.7891 94.8042 17.3823 94.8042 18.5767C94.8042 19.7709 94.8042 24.4005 94.8042 24.4005H98.6406C98.6406 24.4005 98.6406 21.1796 98.6406 18.8065C98.6406 16.0936 98.1911 13.5888 95.132 13.5888Z" fill="#0F172A"/>
<path d="M99.8853 13.844V24.4004H103.722V13.844C103.722 13.844 103.077 14.2212 101.807 14.2212C100.538 14.2212 99.8853 13.844 99.8853 13.844Z" fill="#0F172A"/>
<path d="M101.792 10.5234C100.495 10.5234 99.4445 11.2097 99.4445 12.0562C99.4445 12.9025 100.495 13.5888 101.792 13.5888C103.089 13.5888 104.141 12.9025 104.141 12.0562C104.141 11.2097 103.089 10.5234 101.792 10.5234Z" fill="#0F172A"/>
<path d="M68.2134 13.844V24.4004H72.0497V13.844C72.0497 13.844 71.4049 14.2212 70.1355 14.2212C68.8661 14.2212 68.2134 13.844 68.2134 13.844Z" fill="#0F172A"/>
<path d="M70.1207 10.5234C68.8239 10.5234 67.7725 11.2097 67.7725 12.0562C67.7725 12.9025 68.8239 13.5888 70.1207 13.5888C71.4178 13.5888 72.4692 12.9025 72.4692 12.0562C72.4692 11.2097 71.4178 10.5234 70.1207 10.5234Z" fill="#0F172A"/>
<path d="M127.477 22.1293C126.598 22.1293 125.951 21.0135 125.951 19.4587C125.951 17.9489 126.615 16.7888 127.447 16.7888C128.514 16.7888 128.97 17.7678 128.97 19.4587C128.97 21.2177 128.55 22.1293 127.477 22.1293ZM128.531 13.5862C126.559 13.5862 125.655 15.065 125.262 15.9074C125.002 16.464 125.016 16.6274 124.826 16.6274C124.551 16.6274 124.779 16.1803 124.903 15.6548C125.145 14.6202 124.96 13.8294 124.96 13.8294H122.15V27.3167H125.987C125.987 27.3167 125.987 25.1098 125.987 23.0406C126.44 23.8107 127.281 24.6336 128.578 24.6336C131.352 24.6336 132.748 22.2865 132.748 19.1152C132.748 15.5208 131.076 13.5862 128.531 13.5862Z" fill="#0F172A"/>
<path d="M26.3503 16.7786C26.6083 16.7478 26.8555 16.7464 27.0826 16.7786C27.214 16.4771 27.2367 15.9575 27.1184 15.3915C26.9426 14.5504 26.7048 14.0413 26.2132 14.1205C25.7218 14.1997 25.7036 14.8092 25.8793 15.6504C25.9782 16.1236 26.1542 16.5279 26.3503 16.7786Z" fill="#0F172A"/>
<path d="M22.1296 17.444C22.4812 17.5984 22.6974 17.7007 22.782 17.6112C22.8363 17.5556 22.8202 17.4492 22.7362 17.312C22.5626 17.0286 22.2055 16.7413 21.8268 16.5799C21.0521 16.2465 20.1282 16.3574 19.4154 16.8694C19.1802 17.0419 18.9571 17.2807 18.989 17.4257C18.9994 17.4726 19.0347 17.5079 19.1172 17.5195C19.3113 17.5417 19.9891 17.1989 20.7699 17.1511C21.3211 17.1174 21.7778 17.2898 22.1296 17.444Z" fill="#0F172A"/>
<path d="M21.42 17.8478C20.9619 17.9201 20.7093 18.0712 20.5471 18.2116C20.4087 18.3324 20.3231 18.4662 20.3239 18.5603C20.3241 18.6051 20.3436 18.6308 20.3589 18.6439C20.3798 18.6622 20.4045 18.6724 20.4342 18.6724C20.5377 18.6724 20.7694 18.5794 20.7694 18.5794C21.4069 18.3512 21.8273 18.3789 22.244 18.4264C22.4743 18.4522 22.5831 18.4665 22.6336 18.3876C22.6486 18.3649 22.6667 18.3159 22.6206 18.2412C22.5132 18.0671 22.0508 17.7729 21.42 17.8478Z" fill="#0F172A"/>
<path d="M24.9241 19.3297C25.235 19.4826 25.5774 19.4225 25.689 19.1957C25.8004 18.969 25.6386 18.6613 25.3275 18.5083C25.0166 18.3557 24.6742 18.4155 24.5627 18.6423C24.4513 18.8692 24.613 19.1768 24.9241 19.3297Z" fill="#0F172A"/>
<path d="M26.9227 17.5824C26.67 17.5781 26.4605 17.8556 26.4546 18.2019C26.4487 18.5485 26.6488 18.8328 26.9015 18.8371C27.1541 18.8415 27.3637 18.564 27.3695 18.2176C27.3754 17.8709 27.1753 17.5866 26.9227 17.5824Z" fill="#0F172A"/>
<path d="M9.95321 23.8299C9.89036 23.7512 9.78711 23.7751 9.68711 23.7985C9.61727 23.8148 9.53815 23.8331 9.4514 23.8316C9.26558 23.828 9.10822 23.7488 9.01984 23.6129C8.90474 23.4361 8.91139 23.1726 9.03849 22.871C9.05559 22.8302 9.07579 22.785 9.09778 22.7358C9.30034 22.2811 9.63954 21.5202 9.25875 20.7951C8.97215 20.2495 8.50474 19.9095 7.94275 19.8382C7.40324 19.7698 6.84779 19.9698 6.49349 20.3607C5.93454 20.9773 5.84719 21.8165 5.95529 22.1131C5.99492 22.2216 6.05685 22.2516 6.1019 22.2578C6.19697 22.2705 6.33759 22.2013 6.4257 21.9643C6.43199 21.9473 6.44038 21.9208 6.45089 21.8873C6.4902 21.762 6.56328 21.5287 6.68299 21.3417C6.82734 21.1162 7.05216 20.9609 7.31605 20.9044C7.5849 20.8468 7.85967 20.8981 8.08968 21.0488C8.48129 21.3048 8.63206 21.7846 8.46489 22.2425C8.37849 22.4792 8.23809 22.9319 8.26909 23.304C8.33166 24.0568 8.79472 24.3592 9.21079 24.3914C9.61531 24.4065 9.89802 24.1796 9.96954 24.0135C10.0118 23.9153 9.97612 23.8556 9.95321 23.8299Z" fill="#0F172A"/>
<path d="M13.7974 10.0023C15.1167 8.4777 16.7409 7.15228 18.1958 6.40804C18.2461 6.38219 18.2995 6.43692 18.2723 6.48625C18.1567 6.69546 17.9344 7.14348 17.8638 7.48327C17.8528 7.53623 17.9104 7.57605 17.9551 7.54561C18.8602 6.92863 20.4349 6.2675 21.8159 6.18252C21.8753 6.17884 21.904 6.25495 21.8568 6.29117C21.6467 6.45234 21.417 6.67526 21.2492 6.90078C21.2206 6.93915 21.2475 6.99442 21.2954 6.99471C22.2652 7.00162 23.6323 7.341 24.5234 7.84082C24.5836 7.87456 24.5406 7.99131 24.4733 7.97586C23.1251 7.66695 20.9182 7.43248 18.6258 7.99162C16.5792 8.49085 15.0171 9.26149 13.8776 10.0902C13.82 10.1323 13.7508 10.0562 13.7974 10.0023ZM20.3684 24.7735C20.3683 24.7735 20.3684 24.7738 20.3684 24.7735V24.7735ZM25.8091 25.4158C25.8482 25.3994 25.8753 25.3548 25.8706 25.3105C25.8651 25.2559 25.8165 25.2162 25.7619 25.2219C25.7619 25.2219 22.9463 25.6385 20.2865 24.665C20.5763 23.7233 21.3466 24.0633 22.511 24.1573C24.6098 24.2824 26.4908 23.9758 27.8809 23.5767C29.0857 23.2312 30.6677 22.5495 31.8967 21.5795C32.3112 22.4901 32.4575 23.492 32.4575 23.492C32.4575 23.492 32.7784 23.4347 33.0465 23.5996C33.2998 23.7556 33.4856 24.0797 33.3587 24.9177C33.1003 26.4833 32.4348 27.754 31.3165 28.9231C30.6356 29.6558 29.8091 30.293 28.8635 30.7563C28.3612 31.0201 27.8265 31.2484 27.2616 31.4327C23.0452 32.8098 18.7294 31.2959 17.3381 28.0449C17.2272 27.8004 17.1332 27.5447 17.0593 27.277C16.4663 25.1346 16.9697 22.5643 18.543 20.9464C18.5428 20.9464 18.5431 20.9462 18.543 20.9464C18.6399 20.8434 18.7389 20.7211 18.7389 20.5685C18.7389 20.4408 18.6578 20.306 18.5874 20.2105C18.0369 19.4122 16.1303 18.0517 16.513 15.4189C16.7878 13.5274 18.442 12.1954 19.9842 12.2743C20.1145 12.2811 20.2451 12.289 20.3752 12.2966C21.0435 12.3363 21.6265 12.4221 22.1767 12.4449C23.0975 12.4848 23.9256 12.3508 24.9064 11.5337C25.2372 11.258 25.5024 11.0191 25.9513 10.943C25.9984 10.935 26.1158 10.8928 26.3504 10.9039C26.5897 10.9167 26.8177 10.9825 27.0225 11.1188C27.8089 11.642 27.9203 12.9091 27.961 13.8362C27.9843 14.3653 28.0484 15.6455 28.0701 16.0131C28.1202 16.8534 28.3411 16.9719 28.788 17.119C29.0393 17.2019 29.2726 17.2635 29.6164 17.36C30.6572 17.6522 31.2744 17.9486 31.6632 18.3295C31.8952 18.5673 32.0031 18.8203 32.0365 19.0614C32.1591 19.9567 31.3413 21.0627 29.1764 22.0677C26.8098 23.166 23.9388 23.4442 21.9551 23.2233C21.803 23.2064 21.2619 23.1451 21.2601 23.1448C19.6733 22.9311 18.7682 24.9818 19.7204 26.3866C20.3343 27.292 22.006 27.8813 23.6786 27.8816C27.5137 27.882 30.4613 26.2444 31.5577 24.8301C31.5906 24.7877 31.5938 24.7832 31.6455 24.7049C31.6994 24.6237 31.655 24.5788 31.5878 24.6249C30.6919 25.2378 26.7128 27.6714 22.4566 26.9393C22.4566 26.9393 21.9395 26.8542 21.4674 26.6706C21.0922 26.5247 20.3071 26.1634 20.2116 25.3579C23.6464 26.4201 25.8091 25.4158 25.8091 25.4158ZM6.94317 17.253C5.74863 17.4853 4.69577 18.1623 4.052 19.0974C3.66716 18.7765 2.95028 18.1552 2.82369 17.9131C1.79581 15.9615 3.94541 12.1669 5.44707 10.0239C9.15822 4.72795 14.9706 0.719343 17.6614 1.4467C18.0988 1.5705 19.5475 3.25016 19.5475 3.25016C19.5475 3.25016 16.858 4.74253 14.3637 6.82272C11.0028 9.41052 8.46405 13.1716 6.94317 17.253ZM8.95046 26.209C8.76965 26.2398 8.58525 26.2522 8.39923 26.2476C6.6019 26.1994 4.66044 24.5813 4.46751 22.6624C4.25428 20.5413 5.33802 18.909 7.25688 18.5219C7.48629 18.4757 7.76352 18.449 8.06247 18.4646C9.13759 18.5235 10.7219 19.3489 11.0839 21.6912C11.4045 23.7654 10.8953 25.8773 8.95046 26.209ZM33.298 22.4531C33.2826 22.3987 33.1823 22.0321 33.0445 21.5904C32.9066 21.1483 32.764 20.8374 32.764 20.8374C33.3167 20.0098 33.3266 19.2697 33.2531 18.8504C33.1746 18.3308 32.9583 17.888 32.5223 17.4303C32.0862 16.9726 31.1945 16.5039 29.9412 16.1519C29.798 16.1117 29.3253 15.982 29.2838 15.9694C29.2805 15.9423 29.2491 14.4192 29.2207 13.7654C29.1999 13.2928 29.1593 12.5549 28.9304 11.8281C28.6576 10.8443 28.1821 9.9835 27.5888 9.43274C29.2263 7.73534 30.2486 5.86537 30.2461 4.26118C30.2414 1.17616 26.4526 0.242762 21.7836 2.17607C21.7788 2.17808 20.8015 2.59249 20.7944 2.59595C20.7899 2.59177 19.006 0.841269 18.9791 0.817894C13.6558 -3.82529 -2.98801 14.6747 2.33333 19.1679L3.49627 20.1531C3.19462 20.9345 3.07608 21.8298 3.17291 22.7927C3.29719 24.0292 3.93504 25.2146 4.96891 26.1303C5.95034 27 7.24071 27.5503 8.49291 27.5492C10.5636 32.3213 15.2951 35.2487 20.8428 35.4135C26.7937 35.5902 31.789 32.7979 33.8822 27.782C34.0191 27.4299 34.6002 25.8438 34.6002 24.4436C34.6002 23.0364 33.8046 22.4531 33.298 22.4531Z" fill="#0F172A"/>
</svg>
