<svg width="143" height="24" viewBox="0 0 143 24" fill="none" xmlns="http://www.w3.org/2000/svg">
<g id="SVG">
<path id="Vector" fill-rule="evenodd" clip-rule="evenodd" d="M19.9022 0.0803223L15.0426 12.7748L10.1541 0.0803223H1.7959V23.0876H7.81094V7.87734L13.7173 23.0876H16.3714L22.2453 7.87734V23.0876H28.2604V0.0803223H19.9022Z" fill="#0F172A"/>
<path id="Vector_2" fill-rule="evenodd" clip-rule="evenodd" d="M40.4584 18.812V17.3254C39.9011 16.5325 38.6403 16.1521 37.4576 16.1521C36.0575 16.1521 34.7628 16.7756 34.7628 18.0846C34.7628 19.3936 36.0575 20.0171 37.4576 20.0171C38.6403 20.0171 39.9011 19.6031 40.4584 18.8103V18.812ZM40.4584 23.086V21.43C39.41 22.6686 37.3846 23.5 35.2148 23.5C32.6269 23.5 29.4138 21.7384 29.4138 18.0125C29.4138 13.9799 32.6252 12.6374 35.2148 12.6374C37.4576 12.6374 39.4491 13.3582 40.4584 14.6017V12.9458C40.4584 11.4977 39.2045 10.4971 37.0329 10.4971C35.3541 10.4971 33.6753 11.1508 32.3143 12.2905L30.3229 8.59812C32.4928 6.77122 35.3932 6.01196 37.9759 6.01196C42.0318 6.01196 45.8482 7.49862 45.8482 12.6709V23.0877H40.4584V23.086Z" fill="#0F172A"/>
<path id="Vector_3" fill-rule="evenodd" clip-rule="evenodd" d="M46.5771 20.9138L48.815 17.1225C50.0758 18.222 52.7639 19.3618 54.7621 19.3618C56.3678 19.3618 57.0322 18.9093 57.0322 18.1885C57.0322 16.1202 47.2093 18.2556 47.2093 11.4977C47.2093 8.56459 49.7971 6.01196 54.4427 6.01196C57.3108 6.01196 59.6863 6.90866 61.506 8.21765L59.4484 11.9837C58.4323 11.0133 56.5088 10.1501 54.4834 10.1501C53.2227 10.1501 52.3849 10.6345 52.3849 11.2899C52.3849 13.1168 62.1687 11.2228 62.1687 18.0528C62.1687 21.2205 59.3413 23.5 54.5157 23.5C51.4758 23.5 48.3648 22.4977 46.5771 20.9138Z" fill="#0F172A"/>
<path id="Vector_4" fill-rule="evenodd" clip-rule="evenodd" d="M74.651 23.0876V13.3883C74.651 11.3602 73.5686 10.7048 71.8491 10.7048C70.2773 10.7048 69.2289 11.563 68.6037 12.3223V23.0859H63.2139V0.0803223H68.6037V8.4606C69.613 7.28737 71.6111 6.01357 74.4386 6.01357C78.2889 6.01357 80.0339 8.15222 80.0339 11.2227V23.0876H74.651Z" fill="#0F172A"/>
<path id="Vector_5" fill-rule="evenodd" clip-rule="evenodd" d="M92.1698 18.812V17.3254C91.6107 16.5325 90.3517 16.1521 89.1622 16.1521C87.7621 16.1521 86.4674 16.7756 86.4674 18.0846C86.4674 19.3936 87.7621 20.0171 89.1622 20.0171C90.3517 20.0171 91.6107 19.6031 92.1698 18.8103V18.812ZM92.1698 23.086V21.43C91.1197 22.6686 89.0892 23.5 86.9262 23.5C84.3367 23.5 81.1184 21.7384 81.1184 18.0125C81.1184 13.9799 84.3367 12.6374 86.9262 12.6374C89.1622 12.6374 91.1537 13.3582 92.1698 14.6017V12.9458C92.1698 11.4977 90.9073 10.4971 88.7443 10.4971C87.0655 10.4971 85.385 11.1508 84.0189 12.2905L82.0275 8.59812C84.1974 6.77122 87.0978 6.01196 89.6873 6.01196C93.7415 6.01196 97.551 7.49862 97.551 12.6709V23.0877H92.1698V23.086Z" fill="#0F172A"/>
<path id="Vector_6" fill-rule="evenodd" clip-rule="evenodd" d="M107.896 18.812C110.027 18.812 111.64 17.2532 111.64 14.7391C111.64 12.2585 110.027 10.6998 107.896 10.6998C106.741 10.6998 105.348 11.3216 104.678 12.2183V17.3253C105.348 18.2219 106.743 18.812 107.896 18.812ZM99.2952 23.0859V0.0803223H104.678V8.39357C105.877 6.87173 107.728 5.99103 109.682 6.01357C113.91 6.01357 117.129 9.29193 117.129 14.7391C117.129 20.3958 113.843 23.4999 109.682 23.4999C107.791 23.4999 106.078 22.7407 104.678 21.1551V23.0876H99.2952V23.0859Z" fill="#0F172A"/>
<path id="Vector_7" fill-rule="evenodd" clip-rule="evenodd" d="M118.213 0.0803223H123.596V23.0876H118.213V0.0803223Z" fill="#0F172A"/>
<path id="Vector_8" fill-rule="evenodd" clip-rule="evenodd" d="M133.631 10.2876C131.286 10.2876 130.379 11.6687 130.165 12.8737H137.128C136.984 11.7005 136.113 10.2876 133.631 10.2876ZM124.677 14.7392C124.677 9.91382 128.347 6.01196 133.631 6.01196C138.629 6.01196 142.266 9.63225 142.266 15.289V16.5008H130.239C130.623 17.9806 132.023 19.2243 134.467 19.2243C135.656 19.2243 137.614 18.7064 138.597 17.8097L140.932 21.2926C139.258 22.7725 136.458 23.5 133.876 23.5C128.666 23.5 124.677 20.1545 124.677 14.7392Z" fill="#0F172A"/>
</g>
</svg>
