<svg width="143" height="32" viewBox="0 0 143 32" fill="none" xmlns="http://www.w3.org/2000/svg">
<g id="SVG">
<g id="Clip path group">
<mask id="mask0_152_266" style="mask-type:luminance" maskUnits="userSpaceOnUse" x="0" y="0" width="143" height="32">
<g id="clip0_3753_27919">
<path id="Vector" d="M142.056 0.787109H0.887207V31.6676H142.056V0.787109Z" fill="white"/>
</g>
</mask>
<g mask="url(#mask0_152_266)">
<g id="Group">
<path id="Vector_2" d="M142.034 15.1664V12.6827H138.951V8.82271L138.848 8.8558L135.952 9.73806H135.897V12.6607H131.327V11.0284C131.327 10.2785 131.503 9.69402 131.835 9.30797C132.165 8.92197 132.65 8.72896 133.246 8.72896C133.687 8.72896 134.151 8.83925 134.591 9.03776L134.702 9.08188V6.478L134.658 6.45595C134.238 6.30705 133.665 6.22985 132.959 6.22985C132.066 6.22985 131.25 6.42837 130.533 6.81878C129.816 7.19376 129.254 7.75623 128.867 8.46207C128.47 9.16791 128.272 9.98407 128.272 10.8774V12.664H126.132V15.1454H128.283V25.6007H131.36V15.1454H135.934V21.7848C135.934 24.5199 137.22 25.9095 139.772 25.9095C140.191 25.9095 140.632 25.8566 141.074 25.7662C141.531 25.6669 141.845 25.5677 142.021 25.4684L142.065 25.4463V22.9428L141.941 23.0267C141.776 23.1369 141.566 23.2329 141.324 23.299C141.081 23.3652 140.871 23.4093 140.715 23.4093C140.119 23.4093 139.678 23.2549 139.407 22.9384C139.126 22.6241 138.987 22.0671 138.987 21.2841V15.1742H142.053L142.047 15.1587L142.034 15.1664ZM119.216 23.4159C118.099 23.4159 117.217 23.0443 116.591 22.3131C115.97 21.5797 115.654 20.533 115.654 19.203C115.654 17.831 115.97 16.7546 116.595 16.009C117.217 15.2679 118.09 14.8907 119.193 14.8907C120.262 14.8907 121.101 15.2503 121.718 15.9606C122.337 16.6751 122.645 17.7406 122.645 19.128C122.645 20.533 122.358 21.6127 121.785 22.334C121.211 23.0508 120.351 23.4149 119.226 23.4149L119.216 23.4159ZM119.358 12.3718C117.23 12.3718 115.533 12.996 114.325 14.229C113.123 15.4642 112.508 17.1692 112.508 19.3022C112.508 21.3315 113.103 22.9582 114.286 24.1439C115.466 25.3349 117.073 25.9525 119.059 25.9525C121.123 25.9525 122.787 25.3129 123.99 24.0722C125.203 22.8237 125.806 21.1319 125.806 19.0507C125.806 16.9928 125.233 15.3495 124.097 14.1761C122.961 12.9916 121.368 12.3938 119.354 12.3938L119.358 12.3718ZM107.531 12.3938C106.075 12.3938 104.88 12.7644 103.957 13.4967C103.04 14.2334 102.568 15.1951 102.568 16.3642C102.568 16.9752 102.672 17.5111 102.872 17.9744C103.071 18.431 103.38 18.8346 103.793 19.1743C104.2 19.5052 104.829 19.8581 105.667 20.2198C106.373 20.5065 106.892 20.7492 107.227 20.9477C107.557 21.1319 107.792 21.3227 107.91 21.5068C108.043 21.6833 108.109 21.9369 108.109 22.2348C108.109 23.1104 107.46 23.5318 106.124 23.5318C105.625 23.5318 105.059 23.4281 104.438 23.223C103.813 23.02 103.233 22.7266 102.71 22.3494L102.578 22.2613V25.2169L102.622 25.239C103.063 25.4375 103.607 25.614 104.255 25.7463C104.899 25.8896 105.49 25.9559 105.997 25.9559C107.574 25.9559 108.843 25.5809 109.769 24.8486C110.695 24.1074 111.169 23.1171 111.169 21.9105C111.169 21.0392 110.916 20.2893 110.414 19.6882C109.918 19.086 109.057 18.5369 107.852 18.0515C106.9 17.6656 106.286 17.3457 106.021 17.1031C105.778 16.8649 105.665 16.5296 105.665 16.106C105.665 15.7311 105.82 15.4289 106.133 15.1863C106.45 14.9381 106.89 14.8146 107.441 14.8146C107.954 14.8146 108.479 14.8918 109.008 15.0517C109.526 15.215 109.984 15.4267 110.365 15.687L110.494 15.7752V12.9519L110.449 12.9298C110.091 12.7754 109.626 12.6464 109.059 12.5438C108.497 12.4368 107.986 12.3894 107.543 12.3894L107.531 12.3938ZM94.5292 23.4292C93.4153 23.4292 92.533 23.0608 91.9154 22.3263C91.2868 21.5984 90.9724 20.5507 90.9724 19.2162C90.9724 17.8486 91.2879 16.7678 91.9143 16.0256C92.532 15.2845 93.4076 14.9073 94.5061 14.9073C95.5758 14.9073 96.4247 15.2668 97.0373 15.977C97.6462 16.694 97.9634 17.7593 97.9634 19.1467C97.9634 20.5495 97.666 21.6282 97.0919 22.3506C96.5301 23.0674 95.6699 23.4313 94.5336 23.4313L94.5292 23.4292ZM94.6881 12.3916C92.5484 12.3916 90.8501 13.0136 89.6479 14.2467C88.4381 15.4819 87.8281 17.1858 87.8281 19.3199C87.8281 21.3491 88.4237 22.9748 89.596 24.1615C90.7784 25.3525 92.382 25.9702 94.366 25.9702C96.4397 25.9702 98.0942 25.3305 99.3073 24.0843C100.514 22.8336 101.127 21.1418 101.127 19.0607C101.127 17.0016 100.553 15.3583 99.4278 14.186C98.2918 13.0004 96.6976 12.4027 94.6858 12.4027L94.6881 12.3916ZM83.174 14.9481V12.6982H80.13V25.6349H83.174V19.0177C83.174 17.8928 83.4276 16.9663 83.9317 16.266C84.4279 15.569 85.0897 15.2293 85.8948 15.2293C86.1705 15.2293 86.4793 15.2734 86.8191 15.3616C87.1499 15.4499 87.3881 15.5381 87.5249 15.6484L87.6572 15.7367V12.6707L87.6087 12.6486C87.3219 12.5207 86.9249 12.4589 86.4176 12.4589C85.6566 12.4589 84.9727 12.706 84.386 13.1868C83.8677 13.6147 83.496 14.197 83.2114 14.9249H83.1564L83.184 14.947L83.174 14.9481ZM74.6597 12.3894C73.259 12.3894 72.0128 12.6817 70.954 13.2717C69.8865 13.8672 69.0681 14.7055 68.5057 15.7863C67.9542 16.856 67.6674 18.1078 67.6674 19.5029C67.6674 20.7271 67.9454 21.8455 68.4836 22.8358C69.0284 23.8284 69.7961 24.6004 70.7665 25.1408C71.7304 25.6736 72.851 25.9459 74.0906 25.9459C75.5376 25.9459 76.7706 25.6592 77.7632 25.0856L77.8074 25.0636V22.2711L77.675 22.3627C77.2262 22.6935 76.7265 22.9527 76.1861 23.1403C75.6479 23.3277 75.1582 23.4226 74.7303 23.4226C73.5326 23.4226 72.5753 23.0476 71.8783 22.3141C71.1725 21.5642 70.8195 20.5275 70.8195 19.2261C70.8195 17.9026 71.1945 16.8439 71.9179 16.0719C72.6459 15.2779 73.6032 14.8808 74.7744 14.8808C75.767 14.8808 76.7452 15.2227 77.6673 15.8844L77.7997 15.9726V13.039L77.7632 13.0169C77.4158 12.8184 76.9438 12.664 76.3516 12.5383C75.7714 12.417 75.2001 12.3574 74.6553 12.3574L74.6597 12.3894ZM65.5786 12.6663H62.539V25.614H65.583V12.6663H65.5786ZM64.0787 7.16289C63.5779 7.16289 63.1413 7.33273 62.7817 7.67021C62.4221 8.00989 62.2391 8.4356 62.2391 8.93851C62.2391 9.43483 62.4233 9.85391 62.7795 10.1847C63.1324 10.5156 63.5735 10.6788 64.0809 10.6788C64.5882 10.6788 65.0294 10.5134 65.3878 10.1826C65.7496 9.85165 65.9326 9.43257 65.9326 8.9363C65.9326 8.45104 65.7562 8.03195 65.4033 7.67903C65.0503 7.34816 64.6091 7.1717 64.0798 7.1717L64.0787 7.16289ZM56.4809 11.7266V25.6227H59.591V7.58087H55.2898L49.8383 20.9896L44.5334 7.57866H40.0623V25.6349H42.985V11.7442H43.0843L48.6869 25.6383H50.8871L56.4015 11.7453H56.5063L56.4898 11.7387L56.4809 11.7266ZM16.7 17.3402H31.0154V31.6676H16.6779L16.6977 17.3501L16.7 17.3402ZM0.887956 17.349H15.2012V31.6676H0.883545L0.887956 17.3501V17.349ZM16.7011 1.53712H31.0165V15.8524H16.6923L16.7011 1.53271V1.53712ZM0.887956 1.53492H15.2012V15.8524H0.883545L0.887956 1.53271V1.53492Z" fill="#0F172A"/>
</g>
</g>
</g>
</g>
</svg>
