<svg width="143" height="32" viewBox="0 0 143 32" fill="none" xmlns="http://www.w3.org/2000/svg">
<mask id="mask0_810_138" style="mask-type:luminance" maskUnits="userSpaceOnUse" x="0" y="0" width="143" height="32">
<path d="M142.056 0.787231H0.887207V31.6677H142.056V0.787231Z" fill="white"/>
</mask>
<g mask="url(#mask0_810_138)">
<path d="M142.034 15.1666V12.6828H138.951V8.82283L138.848 8.85592L135.952 9.73818H135.897V12.6608H131.327V11.0286C131.327 10.2787 131.503 9.69414 131.835 9.30809C132.165 8.92209 132.65 8.72909 133.246 8.72909C133.687 8.72909 134.151 8.83938 134.591 9.03789L134.702 9.08201V6.47812L134.658 6.45607C134.238 6.30717 133.665 6.22997 132.959 6.22997C132.066 6.22997 131.25 6.42849 130.533 6.81891C129.816 7.19389 129.254 7.75635 128.867 8.46219C128.47 9.16803 128.272 9.98419 128.272 10.8775V12.6641H126.132V15.1456H128.283V25.6008H131.36V15.1456H135.934V21.7849C135.934 24.5201 137.22 25.9096 139.772 25.9096C140.191 25.9096 140.632 25.8567 141.074 25.7663C141.531 25.667 141.845 25.5678 142.021 25.4685L142.065 25.4464V22.9429L141.941 23.0268C141.776 23.137 141.566 23.233 141.324 23.2991C141.081 23.3653 140.871 23.4094 140.715 23.4094C140.119 23.4094 139.678 23.255 139.407 22.9385C139.126 22.6242 138.987 22.0672 138.987 21.2842V15.1743H142.053L142.047 15.1588L142.034 15.1666ZM119.216 23.416C118.099 23.416 117.217 23.0444 116.591 22.3132C115.97 21.5798 115.654 20.5331 115.654 19.2031C115.654 17.8311 115.97 16.7547 116.595 16.0091C117.217 15.268 118.09 14.8908 119.193 14.8908C120.262 14.8908 121.101 15.2504 121.718 15.9607C122.337 16.6753 122.645 17.7407 122.645 19.1281C122.645 20.5331 122.358 21.6128 121.785 22.3341C121.211 23.051 120.351 23.415 119.226 23.415L119.216 23.416ZM119.358 12.3719C117.23 12.3719 115.533 12.9961 114.325 14.2291C113.123 15.4643 112.508 17.1694 112.508 19.3023C112.508 21.3316 113.103 22.9584 114.286 24.144C115.466 25.3351 117.073 25.9526 119.059 25.9526C121.123 25.9526 122.787 25.313 123.99 24.0723C125.203 22.8238 125.806 21.132 125.806 19.0508C125.806 16.9929 125.233 15.3496 124.097 14.1762C122.961 12.9917 121.368 12.3939 119.354 12.3939L119.358 12.3719ZM107.531 12.3939C106.075 12.3939 104.88 12.7645 103.957 13.4968C103.04 14.2335 102.568 15.1953 102.568 16.3643C102.568 16.9753 102.672 17.5113 102.872 17.9745C103.071 18.4311 103.38 18.8348 103.793 19.1744C104.2 19.5053 104.829 19.8582 105.667 20.2199C106.373 20.5067 106.892 20.7493 107.227 20.9479C107.557 21.132 107.792 21.3228 107.91 21.507C108.043 21.6834 108.109 21.9371 108.109 22.2349C108.109 23.1105 107.46 23.5319 106.124 23.5319C105.625 23.5319 105.059 23.4282 104.438 23.2231C103.813 23.0201 103.233 22.7268 102.71 22.3496L102.578 22.2614V25.2171L102.622 25.2391C103.063 25.4377 103.607 25.6141 104.255 25.7464C104.899 25.8898 105.49 25.956 105.997 25.956C107.574 25.956 108.843 25.581 109.769 24.8487C110.695 24.1076 111.169 23.1172 111.169 21.9106C111.169 21.0393 110.916 20.2894 110.414 19.6884C109.918 19.0861 109.057 18.537 107.852 18.0517C106.9 17.6657 106.286 17.3458 106.021 17.1032C105.778 16.865 105.665 16.5297 105.665 16.1062C105.665 15.7312 105.82 15.429 106.133 15.1864C106.45 14.9382 106.89 14.8148 107.441 14.8148C107.954 14.8148 108.479 14.8919 109.008 15.0518C109.526 15.2151 109.984 15.4269 110.365 15.6871L110.494 15.7754V12.952L110.449 12.9299C110.091 12.7755 109.626 12.6465 109.059 12.5439C108.497 12.4369 107.986 12.3895 107.543 12.3895L107.531 12.3939ZM94.5292 23.4293C93.4153 23.4293 92.533 23.0609 91.9154 22.3264C91.2868 21.5985 90.9724 20.5508 90.9724 19.2163C90.9724 17.8487 91.2879 16.768 91.9143 16.0257C92.532 15.2846 93.4076 14.9074 94.5061 14.9074C95.5758 14.9074 96.4247 15.2669 97.0373 15.9771C97.6462 16.6941 97.9634 17.7594 97.9634 19.1468C97.9634 20.5497 97.666 21.6283 97.0919 22.3507C96.5301 23.0675 95.6699 23.4315 94.5336 23.4315L94.5292 23.4293ZM94.6881 12.3918C92.5484 12.3918 90.8501 13.0137 89.6479 14.2468C88.4381 15.482 87.8281 17.1859 87.8281 19.32C87.8281 21.3492 88.4237 22.9749 89.596 24.1616C90.7784 25.3527 92.382 25.9703 94.366 25.9703C96.4397 25.9703 98.0942 25.3306 99.3073 24.0844C100.514 22.8338 101.127 21.1419 101.127 19.0608C101.127 17.0017 100.553 15.3585 99.4278 14.1861C98.2918 13.0005 96.6976 12.4028 94.6858 12.4028L94.6881 12.3918ZM83.174 14.9482V12.6983H80.13V25.635H83.174V19.0178C83.174 17.8929 83.4276 16.9664 83.9317 16.2662C84.4279 15.5691 85.0897 15.2294 85.8948 15.2294C86.1705 15.2294 86.4793 15.2736 86.8191 15.3617C87.1499 15.45 87.3881 15.5382 87.5249 15.6485L87.6572 15.7368V12.6708L87.6087 12.6487C87.3219 12.5208 86.9249 12.4591 86.4176 12.4591C85.6566 12.4591 84.9727 12.7061 84.386 13.1869C83.8677 13.6148 83.496 14.1971 83.2114 14.9251H83.1564L83.184 14.9471L83.174 14.9482ZM74.6597 12.3895C73.259 12.3895 72.0128 12.6818 70.954 13.2718C69.8865 13.8673 69.0681 14.7056 68.5057 15.7864C67.9542 16.8561 67.6674 18.1079 67.6674 19.503C67.6674 20.7273 67.9454 21.8456 68.4836 22.8359C69.0284 23.8285 69.7961 24.6005 70.7665 25.1409C71.7304 25.6737 72.851 25.946 74.0906 25.946C75.5376 25.946 76.7706 25.6593 77.7632 25.0858L77.8074 25.0637V22.2713L77.675 22.3628C77.2262 22.6936 76.7265 22.9528 76.1861 23.1404C75.6479 23.3278 75.1582 23.4227 74.7303 23.4227C73.5326 23.4227 72.5753 23.0477 71.8783 22.3143C71.1725 21.5643 70.8195 20.5276 70.8195 19.2263C70.8195 17.9028 71.1945 16.844 71.9179 16.072C72.6459 15.278 73.6032 14.8809 74.7744 14.8809C75.767 14.8809 76.7452 15.2228 77.6673 15.8845L77.7997 15.9727V13.0392L77.7632 13.017C77.4158 12.8186 76.9438 12.6641 76.3516 12.5384C75.7714 12.4171 75.2001 12.3575 74.6553 12.3575L74.6597 12.3895ZM65.5786 12.6664H62.539V25.6141H65.583V12.6664H65.5786ZM64.0787 7.16301C63.5779 7.16301 63.1413 7.33285 62.7817 7.67033C62.4221 8.01001 62.2391 8.43572 62.2391 8.93864C62.2391 9.43495 62.4233 9.85403 62.7795 10.1848C63.1324 10.5157 63.5735 10.6789 64.0809 10.6789C64.5882 10.6789 65.0294 10.5136 65.3878 10.1827C65.7496 9.85178 65.9326 9.4327 65.9326 8.93642C65.9326 8.45116 65.7562 8.03207 65.4033 7.67915C65.0503 7.34829 64.6091 7.17183 64.0798 7.17183L64.0787 7.16301ZM56.4809 11.7267V25.6229H59.591V7.581H55.2898L49.8383 20.9897L44.5334 7.57878H40.0623V25.635H42.985V11.7444H43.0843L48.6869 25.6384H50.8871L56.4015 11.7454H56.5063L56.4898 11.7388L56.4809 11.7267ZM16.7 17.3404H31.0154V31.6678H16.6779L16.6977 17.3502L16.7 17.3404ZM0.887956 17.3491H15.2012V31.6678H0.883545L0.887956 17.3502V17.3491ZM16.7011 1.53724H31.0165V15.8525H16.6923L16.7011 1.53284V1.53724ZM0.887956 1.53504H15.2012V15.8525H0.883545L0.887956 1.53284V1.53504Z" fill="#0F172A"/>
</g>
</svg>
