<svg width="119" height="36" viewBox="0 0 119 36" fill="none" xmlns="http://www.w3.org/2000/svg">
<g id="SVG">
<path id="Vector" d="M49.0727 16.4797C52.7623 17.3766 54.2665 18.7693 54.2665 21.2873C54.2665 24.2666 51.9902 26.1918 48.4672 26.1918C45.977 26.1918 43.6685 25.3072 41.7922 23.632C41.7537 23.5977 41.7301 23.5496 41.7266 23.4981C41.723 23.4466 41.7398 23.3957 41.7732 23.3564L43.4312 21.3842C43.4481 21.3641 43.4689 21.3475 43.4923 21.3354C43.5157 21.3234 43.5413 21.3161 43.5674 21.314C43.5936 21.3119 43.6201 21.3152 43.6451 21.3234C43.6701 21.3316 43.6932 21.3447 43.7131 21.362C45.3258 22.758 46.7676 23.353 48.5346 23.353C50.1261 23.353 51.115 22.6639 51.115 21.5564C51.115 20.5564 50.6259 19.9977 47.728 19.3303C44.3242 18.5069 42.3538 17.4418 42.3538 14.4307C42.3538 11.6231 44.6378 9.66214 47.9067 9.66214C50.1296 9.66214 52.033 10.3206 53.7227 11.676C53.8041 11.7417 53.8207 11.8599 53.76 11.9456L52.2809 14.0291C52.2655 14.0506 52.246 14.0686 52.2234 14.0825C52.201 14.0963 52.176 14.1056 52.1498 14.1098C52.1238 14.1138 52.0971 14.1128 52.0714 14.1066C52.0457 14.1005 52.0216 14.0892 52.0002 14.0737C50.5808 13.0152 49.227 12.5016 47.8611 12.5016C46.4528 12.5016 45.5057 13.1784 45.5057 14.1839C45.5057 15.248 46.0461 15.755 49.0733 16.478L49.0727 16.4797ZM62.2365 13.4937C60.7102 13.4937 59.4578 14.0954 58.4245 15.3265V13.9394C58.4245 13.8869 58.4035 13.8364 58.3664 13.7992C58.3292 13.762 58.2788 13.7411 58.2261 13.7411H55.5154C55.4627 13.7411 55.4123 13.762 55.3751 13.7992C55.338 13.8364 55.317 13.8869 55.317 13.9394V29.3538C55.317 29.4625 55.4062 29.5516 55.5154 29.5516H58.2267C58.3365 29.5516 58.4256 29.4625 58.4256 29.3534V24.4872C59.4584 25.646 60.7113 26.213 62.2382 26.213C65.0765 26.213 67.9484 24.0293 67.9484 19.8534C67.9484 15.6775 65.0749 13.4937 62.2365 13.4937ZM64.7936 19.854C64.7936 21.9798 63.4845 23.4638 61.6093 23.4638C59.7542 23.4638 58.356 21.9124 58.356 19.854C58.356 17.7955 59.7542 16.2441 61.6093 16.2441C63.4543 16.2441 64.7936 17.7621 64.7936 19.854ZM75.3096 13.4937C71.6552 13.4937 68.7929 16.307 68.7929 19.9002C68.7929 23.4533 71.6351 26.237 75.2639 26.237C78.9313 26.237 81.8024 23.4326 81.8024 19.854C81.8024 16.2875 78.9507 13.4937 75.3096 13.4937ZM75.309 23.4856C73.3648 23.4856 71.8997 21.9241 71.8997 19.8534C71.8997 17.7743 73.3147 16.2658 75.2645 16.2658C77.2199 16.2658 78.6961 17.8273 78.6961 19.8991C78.6961 21.977 77.2711 23.4856 75.309 23.4856ZM89.6061 13.7411C89.7158 13.7411 89.8043 13.8302 89.8043 13.9394V16.2697C89.8044 16.2957 89.7993 16.3215 89.7895 16.3456C89.7795 16.3696 89.765 16.3915 89.7466 16.4099C89.7283 16.4284 89.7064 16.4429 89.6824 16.4529C89.6583 16.4628 89.6326 16.468 89.6065 16.468H86.6234V22.0728C86.6234 22.9586 87.0123 23.353 87.8824 23.353C88.4361 23.356 88.9821 23.224 89.4734 22.9686C89.5038 22.9536 89.5375 22.9465 89.5714 22.9481C89.6052 22.9497 89.6382 22.9598 89.667 22.9777C89.6958 22.9955 89.7195 23.0204 89.7361 23.05C89.7526 23.0797 89.7613 23.113 89.7614 23.1468V25.3652C89.7614 25.436 89.7225 25.5027 89.6612 25.5379C88.9008 25.9684 88.0941 26.169 87.1208 26.169C84.7293 26.169 83.5165 24.934 83.5165 22.4968V16.4685H82.213C82.187 16.4685 82.1613 16.4633 82.1373 16.4533C82.1133 16.4433 82.0916 16.4286 82.0733 16.4103C82.055 16.3918 82.0405 16.37 82.0306 16.3459C82.0208 16.322 82.0157 16.2962 82.0158 16.2702V13.9394C82.0158 13.8302 82.1038 13.7411 82.213 13.7411H83.5165V10.6905C83.5165 10.5813 83.6057 10.4922 83.716 10.4922H86.4267C86.5365 10.4922 86.6251 10.5813 86.6251 10.6905V13.7411H89.6082H89.6061ZM104.634 13.7528C104.715 13.7528 104.789 13.8029 104.818 13.8809L107.985 22.1446L110.877 13.8853C110.891 13.8464 110.916 13.8126 110.95 13.7886C110.984 13.7647 111.023 13.7518 111.065 13.7517H113.887C113.919 13.7517 113.952 13.7595 113.98 13.7747C114.009 13.7898 114.033 13.8117 114.051 13.8385C114.07 13.8653 114.081 13.8961 114.084 13.9283C114.088 13.9605 114.083 13.993 114.071 14.023L109.368 26.1785C108.393 28.687 107.285 29.6196 105.284 29.6196C104.213 29.6196 103.347 29.3979 102.387 28.8786C102.343 28.8549 102.31 28.815 102.294 28.7673C102.278 28.7197 102.282 28.6679 102.302 28.6224L103.221 26.6058C103.233 26.5809 103.249 26.5586 103.27 26.5403C103.289 26.5219 103.313 26.5078 103.339 26.4989C103.364 26.4905 103.392 26.4876 103.419 26.4901C103.447 26.4927 103.473 26.5008 103.497 26.5138C104.011 26.7952 104.514 26.9373 104.993 26.9373C105.583 26.9373 106.016 26.7434 106.456 25.7663L102.579 16.4685H100.047V25.769C100.047 25.8788 99.9577 25.9679 99.8488 25.9679H97.1375C97.111 25.9679 97.0854 25.9628 97.0608 25.9528C97.0371 25.9428 97.0153 25.9281 96.9964 25.9096C96.9784 25.8911 96.9642 25.8693 96.9537 25.8451C96.9443 25.8209 96.9386 25.7952 96.9386 25.769V16.4685H95.6364C95.5838 16.4681 95.5335 16.447 95.4963 16.4099C95.459 16.3727 95.438 16.3223 95.4375 16.2697V13.9283C95.4375 13.8186 95.5267 13.7294 95.6358 13.7294H96.9386V13.1556C96.9386 10.4894 98.262 9.07888 100.767 9.07888C101.796 9.07888 102.482 9.24321 103.02 9.40198C103.105 9.42817 103.161 9.50564 103.161 9.59251V11.8765C103.162 11.9082 103.154 11.9393 103.14 11.9676C103.126 11.9958 103.105 12.0202 103.079 12.0388C103.055 12.0574 103.024 12.0695 102.993 12.0742C102.962 12.079 102.93 12.0761 102.9 12.066C102.391 11.8966 101.938 11.7841 101.373 11.7841C100.426 11.7841 100.002 12.276 100.002 13.3784V13.7528H104.633H104.634ZM93.9752 13.7411C94.0844 13.7411 94.1735 13.8302 94.1735 13.9394V25.7685C94.1735 25.8777 94.0844 25.9668 93.9747 25.9668H91.2633C91.2106 25.9668 91.1602 25.9459 91.1229 25.9088C91.0856 25.8715 91.0646 25.8211 91.0645 25.7685V13.9394C91.0645 13.8302 91.1536 13.7411 91.2627 13.7411H93.9741H93.9752ZM92.6332 8.35523C93.1488 8.35523 93.6434 8.56006 94.0079 8.92467C94.3725 9.28929 94.5774 9.78378 94.5774 10.2994C94.5774 10.815 94.3725 11.3096 94.0079 11.6742C93.6434 12.0388 93.1488 12.2436 92.6332 12.2436C92.1175 12.2436 91.623 12.0388 91.2584 11.6742C90.8939 11.3096 90.6889 10.815 90.6889 10.2994C90.6889 9.78378 90.8939 9.28929 91.2584 8.92467C91.623 8.56006 92.1175 8.35523 92.6332 8.35523ZM116.386 17.5437C116.135 17.5447 115.887 17.496 115.655 17.4004C115.423 17.3049 115.212 17.1644 115.034 16.987C114.857 16.8097 114.717 16.599 114.621 16.3671C114.526 16.1351 114.477 15.8866 114.478 15.6357C114.478 15.3839 114.528 15.1345 114.624 14.9018C114.72 14.6692 114.862 14.4577 115.04 14.2797C115.218 14.1016 115.43 13.9604 115.663 13.864C115.895 13.7677 116.144 13.7181 116.396 13.7182C116.647 13.7172 116.895 13.7657 117.127 13.8611C117.359 13.9566 117.57 14.097 117.748 14.2742C117.925 14.4516 118.065 14.6622 118.161 14.8941C118.256 15.1259 118.305 15.3744 118.304 15.6251C118.304 15.8771 118.254 16.1266 118.158 16.3594C118.062 16.5922 117.921 16.8038 117.743 16.982C117.565 17.1602 117.353 17.3015 117.121 17.398C116.887 17.4945 116.638 17.5436 116.386 17.5437ZM116.396 13.9083C115.419 13.9083 114.679 14.6854 114.679 15.6363C114.679 16.5872 115.413 17.3538 116.386 17.3538C117.363 17.3538 118.104 16.5772 118.104 15.6257C118.104 14.6748 117.368 13.9083 116.396 13.9083ZM116.819 15.8218L117.358 16.5772H116.904L116.419 15.8842H116.001V16.5772H115.62V14.5745H116.513C116.977 14.5745 117.284 14.813 117.284 15.2135C117.284 15.5421 117.095 15.7427 116.819 15.8206V15.8218ZM116.496 14.9182H116V15.551H116.496C116.744 15.551 116.891 15.4296 116.891 15.2335C116.891 15.0274 116.744 14.9182 116.496 14.9182ZM18.8973 0.289795C9.21186 0.289795 1.36035 8.25049 1.36035 17.9365C1.35979 27.0375 8.29101 34.3843 17.1631 35.4985H20.6315C29.5036 34.3843 36.4348 27.0375 36.4348 17.9359C36.4348 8.25049 28.5821 0.289795 18.8973 0.289795ZM26.9398 25.5847C26.8652 25.7074 26.767 25.8141 26.651 25.8987C26.535 25.9834 26.4034 26.0444 26.2637 26.0781C26.1241 26.1119 25.9793 26.1177 25.8373 26.0954C25.6954 26.073 25.5594 26.0229 25.4369 25.9479C21.3184 23.431 16.1353 22.8627 10.0308 24.2571C9.89089 24.2893 9.74604 24.2936 9.60451 24.2697C9.46298 24.2458 9.32754 24.1943 9.20595 24.118C9.08436 24.0418 8.979 23.9422 8.89589 23.8252C8.81279 23.7082 8.75357 23.576 8.72163 23.4359C8.68949 23.296 8.68527 23.1511 8.70922 23.0096C8.73316 22.8679 8.7848 22.7325 8.86118 22.6108C8.93755 22.4893 9.03717 22.3839 9.15432 22.3009C9.27147 22.2178 9.40385 22.1587 9.54388 22.1268C16.2244 20.6004 21.9545 21.2578 26.5772 24.0822C26.8244 24.2337 27.0013 24.477 27.0692 24.7588C27.1371 25.0406 27.0909 25.3372 26.9398 25.5847ZM29.0857 20.8094C28.896 21.1182 28.5914 21.3391 28.2388 21.4235C27.8863 21.5079 27.5147 21.4489 27.2056 21.2595C22.4927 18.3626 15.3063 17.5231 9.72995 19.2161C9.38289 19.3208 9.00848 19.2838 8.68867 19.1131C8.36886 18.9424 8.12973 18.6519 8.02361 18.3053C7.80635 17.5811 8.21302 16.8195 8.93555 16.6006C15.3058 14.6676 23.2236 15.6034 28.6367 18.9292C28.9455 19.1191 29.1664 19.4237 29.2507 19.7762C29.335 20.1288 29.2753 20.5004 29.0857 20.8094ZM29.2707 15.8368C23.6175 12.4799 14.293 12.1712 8.89655 13.8091C8.4802 13.9353 8.03078 13.8908 7.64716 13.6856C7.26353 13.4805 6.97713 13.1313 6.85095 12.7149C6.72478 12.2986 6.76916 11.8491 6.97434 11.4656C7.17954 11.0819 7.52871 10.7955 7.94506 10.6693C14.1398 8.78919 24.438 9.15241 30.9458 13.0146C31.1311 13.1245 31.293 13.2699 31.4221 13.4423C31.5513 13.6148 31.6451 13.811 31.6985 14.0197C31.7517 14.2285 31.7634 14.4456 31.7327 14.6588C31.702 14.8721 31.6296 15.0773 31.5196 15.2625C31.4098 15.448 31.2645 15.6099 31.092 15.7391C30.9195 15.8683 30.7233 15.9623 30.5144 16.0156C30.3056 16.0688 30.0883 16.0805 29.875 16.0497C29.6617 16.0189 29.456 15.947 29.2707 15.8368Z" fill="#0F172A"/>
</g>
</svg>
