<svg width="119" height="36" viewBox="0 0 119 36" fill="none" xmlns="http://www.w3.org/2000/svg">
<path d="M49.0726 16.4797C52.7622 17.3766 54.2663 18.7693 54.2663 21.2873C54.2663 24.2666 51.9901 26.1918 48.4671 26.1918C45.9769 26.1918 43.6684 25.3072 41.7921 23.632C41.7536 23.5977 41.73 23.5496 41.7265 23.4981C41.7229 23.4466 41.7397 23.3957 41.7731 23.3564L43.431 21.3842C43.448 21.3641 43.4688 21.3475 43.4922 21.3354C43.5156 21.3234 43.5411 21.3161 43.5673 21.314C43.5935 21.3119 43.6199 21.3152 43.645 21.3234C43.67 21.3316 43.6931 21.3447 43.713 21.362C45.3257 22.758 46.7675 23.353 48.5345 23.353C50.126 23.353 51.1148 22.6639 51.1148 21.5564C51.1148 20.5564 50.6257 19.9977 47.7279 19.3303C44.3241 18.5069 42.3536 17.4418 42.3536 14.4307C42.3536 11.6231 44.6377 9.66214 47.9066 9.66214C50.1294 9.66214 52.0329 10.3206 53.7226 11.676C53.8039 11.7417 53.8206 11.8599 53.7599 11.9456L52.2808 14.0291C52.2654 14.0506 52.2459 14.0686 52.2233 14.0825C52.2009 14.0963 52.1759 14.1056 52.1497 14.1098C52.1237 14.1138 52.0969 14.1128 52.0713 14.1066C52.0456 14.1005 52.0214 14.0892 52.0001 14.0737C50.5806 13.0152 49.2269 12.5016 47.861 12.5016C46.4527 12.5016 45.5056 13.1784 45.5056 14.1839C45.5056 15.248 46.046 15.755 49.0732 16.478L49.0726 16.4797ZM62.2364 13.4937C60.7101 13.4937 59.4577 14.0954 58.4244 15.3265V13.9394C58.4244 13.8869 58.4034 13.8364 58.3663 13.7992C58.3291 13.762 58.2787 13.7411 58.226 13.7411H55.5153C55.4626 13.7411 55.4122 13.762 55.375 13.7992C55.3379 13.8364 55.3169 13.8869 55.3169 13.9394V29.3538C55.3169 29.4625 55.4061 29.5516 55.5153 29.5516H58.2266C58.3363 29.5516 58.4255 29.4625 58.4255 29.3534V24.4872C59.4583 25.646 60.7112 26.213 62.2381 26.213C65.0764 26.213 67.9482 24.0293 67.9482 19.8534C67.9482 15.6775 65.0748 13.4937 62.2364 13.4937ZM64.7934 19.854C64.7934 21.9798 63.4843 23.4638 61.6092 23.4638C59.7541 23.4638 58.3559 21.9124 58.3559 19.854C58.3559 17.7955 59.7541 16.2441 61.6092 16.2441C63.4542 16.2441 64.7934 17.7621 64.7934 19.854ZM75.3095 13.4937C71.6551 13.4937 68.7928 16.307 68.7928 19.9002C68.7928 23.4533 71.635 26.237 75.2638 26.237C78.9311 26.237 81.8023 23.4326 81.8023 19.854C81.8023 16.2875 78.9505 13.4937 75.3095 13.4937ZM75.3089 23.4856C73.3647 23.4856 71.8996 21.9241 71.8996 19.8534C71.8996 17.7743 73.3146 16.2658 75.2644 16.2658C77.2198 16.2658 78.696 17.8273 78.696 19.8991C78.696 21.977 77.271 23.4856 75.3089 23.4856ZM89.6059 13.7411C89.7156 13.7411 89.8042 13.8302 89.8042 13.9394V16.2697C89.8043 16.2957 89.7992 16.3215 89.7893 16.3456C89.7794 16.3696 89.7649 16.3915 89.7465 16.4099C89.7281 16.4284 89.7063 16.4429 89.6823 16.4529C89.6582 16.4628 89.6325 16.468 89.6064 16.468H86.6233V22.0728C86.6233 22.9586 87.0121 23.353 87.8823 23.353C88.436 23.356 88.982 23.224 89.4733 22.9686C89.5037 22.9536 89.5373 22.9465 89.5713 22.9481C89.6051 22.9497 89.638 22.9598 89.6668 22.9777C89.6956 22.9955 89.7194 23.0204 89.736 23.05C89.7525 23.0797 89.7612 23.113 89.7613 23.1468V25.3652C89.7613 25.436 89.7224 25.5027 89.6611 25.5379C88.9007 25.9684 88.094 26.169 87.1207 26.169C84.7292 26.169 83.5164 24.934 83.5164 22.4968V16.4685H82.2129C82.1869 16.4685 82.1611 16.4633 82.1372 16.4533C82.1132 16.4433 82.0915 16.4286 82.0731 16.4103C82.0549 16.3918 82.0404 16.37 82.0305 16.3459C82.0207 16.322 82.0155 16.2962 82.0156 16.2702V13.9394C82.0156 13.8302 82.1036 13.7411 82.2129 13.7411H83.5164V10.6905C83.5164 10.5813 83.6055 10.4922 83.7159 10.4922H86.4266C86.5364 10.4922 86.625 10.5813 86.625 10.6905V13.7411H89.6081H89.6059ZM104.634 13.7528C104.715 13.7528 104.789 13.8029 104.818 13.8809L107.985 22.1446L110.877 13.8853C110.891 13.8464 110.916 13.8126 110.949 13.7886C110.984 13.7647 111.023 13.7518 111.065 13.7517H113.887C113.919 13.7517 113.952 13.7595 113.98 13.7747C114.008 13.7898 114.033 13.8117 114.051 13.8385C114.07 13.8653 114.08 13.8961 114.084 13.9283C114.088 13.9605 114.083 13.993 114.071 14.023L109.367 26.1785C108.393 28.687 107.285 29.6196 105.284 29.6196C104.213 29.6196 103.347 29.3979 102.387 28.8786C102.343 28.8549 102.31 28.815 102.294 28.7673C102.278 28.7197 102.281 28.6679 102.302 28.6224L103.221 26.6058C103.233 26.5809 103.249 26.5586 103.269 26.5403C103.289 26.5219 103.313 26.5078 103.339 26.4989C103.364 26.4905 103.392 26.4876 103.419 26.4901C103.447 26.4927 103.473 26.5008 103.497 26.5138C104.011 26.7952 104.514 26.9373 104.993 26.9373C105.583 26.9373 106.016 26.7434 106.456 25.7663L102.579 16.4685H100.047V25.769C100.047 25.8788 99.9576 25.9679 99.8487 25.9679H97.1374C97.1109 25.9679 97.0853 25.9628 97.0607 25.9528C97.037 25.9428 97.0152 25.9281 96.9962 25.9096C96.9782 25.8911 96.964 25.8693 96.9536 25.8451C96.9441 25.8209 96.9385 25.7952 96.9385 25.769V16.4685H95.6363C95.5837 16.4681 95.5334 16.447 95.4962 16.4099C95.4589 16.3727 95.4379 16.3223 95.4374 16.2697V13.9283C95.4374 13.8186 95.5266 13.7294 95.6357 13.7294H96.9385V13.1556C96.9385 10.4894 98.2619 9.07888 100.767 9.07888C101.795 9.07888 102.482 9.24321 103.02 9.40198C103.105 9.42817 103.161 9.50564 103.161 9.59251V11.8765C103.161 11.9082 103.154 11.9393 103.14 11.9676C103.125 11.9958 103.105 12.0202 103.079 12.0388C103.054 12.0574 103.024 12.0695 102.993 12.0742C102.962 12.079 102.93 12.0761 102.9 12.066C102.391 11.8966 101.938 11.7841 101.373 11.7841C100.426 11.7841 100.002 12.276 100.002 13.3784V13.7528H104.633H104.634ZM93.9751 13.7411C94.0842 13.7411 94.1734 13.8302 94.1734 13.9394V25.7685C94.1734 25.8777 94.0843 25.9668 93.9745 25.9668H91.2632C91.2105 25.9668 91.16 25.9459 91.1228 25.9088C91.0855 25.8715 91.0644 25.8211 91.0644 25.7685V13.9394C91.0644 13.8302 91.1535 13.7411 91.2626 13.7411H93.974H93.9751ZM92.633 8.35523C93.1487 8.35523 93.6433 8.56006 94.0078 8.92467C94.3724 9.28929 94.5772 9.78378 94.5772 10.2994C94.5772 10.815 94.3724 11.3096 94.0078 11.6742C93.6433 12.0388 93.1487 12.2436 92.633 12.2436C92.1174 12.2436 91.6229 12.0388 91.2583 11.6742C90.8937 11.3096 90.6888 10.815 90.6888 10.2994C90.6888 9.78378 90.8937 9.28929 91.2583 8.92467C91.6229 8.56006 92.1174 8.35523 92.633 8.35523ZM116.386 17.5437C116.135 17.5447 115.887 17.496 115.655 17.4004C115.423 17.3049 115.212 17.1644 115.034 16.987C114.857 16.8097 114.717 16.599 114.621 16.3671C114.526 16.1351 114.477 15.8866 114.478 15.6357C114.478 15.3839 114.528 15.1345 114.624 14.9018C114.72 14.6692 114.862 14.4577 115.04 14.2797C115.218 14.1016 115.429 13.9604 115.662 13.864C115.895 13.7677 116.144 13.7181 116.396 13.7182C116.647 13.7172 116.895 13.7657 117.127 13.8611C117.359 13.9566 117.569 14.097 117.748 14.2742C117.925 14.4516 118.065 14.6622 118.161 14.8941C118.256 15.1259 118.305 15.3744 118.304 15.6251C118.304 15.8771 118.254 16.1266 118.158 16.3594C118.062 16.5922 117.921 16.8038 117.743 16.982C117.565 17.1602 117.352 17.3015 117.12 17.398C116.887 17.4945 116.638 17.5436 116.386 17.5437ZM116.396 13.9083C115.419 13.9083 114.679 14.6854 114.679 15.6363C114.679 16.5872 115.413 17.3538 116.386 17.3538C117.363 17.3538 118.104 16.5772 118.104 15.6257C118.104 14.6748 117.368 13.9083 116.396 13.9083ZM116.819 15.8218L117.358 16.5772H116.903L116.418 15.8842H116.001V16.5772H115.62V14.5745H116.513C116.977 14.5745 117.284 14.813 117.284 15.2135C117.284 15.5421 117.095 15.7427 116.819 15.8206V15.8218ZM116.496 14.9182H116V15.551H116.496C116.744 15.551 116.891 15.4296 116.891 15.2335C116.891 15.0274 116.744 14.9182 116.496 14.9182ZM18.8972 0.289795C9.21174 0.289795 1.36023 8.25049 1.36023 17.9365C1.35967 27.0375 8.29089 34.3843 17.163 35.4985H20.6314C29.5035 34.3843 36.4346 27.0375 36.4346 17.9359C36.4346 8.25049 28.582 0.289795 18.8972 0.289795ZM26.9397 25.5847C26.8651 25.7074 26.7668 25.8141 26.6509 25.8987C26.5348 25.9834 26.4033 26.0444 26.2636 26.0781C26.124 26.1119 25.9791 26.1177 25.8372 26.0954C25.6953 26.073 25.5593 26.0229 25.4368 25.9479C21.3183 23.431 16.1351 22.8627 10.0307 24.2571C9.89077 24.2893 9.74592 24.2936 9.60439 24.2697C9.46286 24.2458 9.32742 24.1943 9.20583 24.118C9.08424 24.0418 8.97888 23.9422 8.89577 23.8252C8.81267 23.7082 8.75345 23.576 8.72151 23.4359C8.68936 23.296 8.68515 23.1511 8.7091 23.0096C8.73304 22.8679 8.78467 22.7325 8.86106 22.6108C8.93743 22.4893 9.03705 22.3839 9.1542 22.3009C9.27135 22.2178 9.40373 22.1587 9.54376 22.1268C16.2243 20.6004 21.9544 21.2578 26.5771 24.0822C26.8242 24.2337 27.0012 24.477 27.069 24.7588C27.137 25.0406 27.0908 25.3372 26.9397 25.5847ZM29.0856 20.8094C28.8959 21.1182 28.5913 21.3391 28.2387 21.4235C27.8862 21.5079 27.5146 21.4489 27.2055 21.2595C22.4926 18.3626 15.3062 17.5231 9.72983 19.2161C9.38277 19.3208 9.00836 19.2838 8.68855 19.1131C8.36874 18.9424 8.1296 18.6519 8.02348 18.3053C7.80622 17.5811 8.21289 16.8195 8.93543 16.6006C15.3057 14.6676 23.2234 15.6034 28.6366 18.9292C28.9454 19.1191 29.1662 19.4237 29.2505 19.7762C29.3349 20.1288 29.2752 20.5004 29.0856 20.8094ZM29.2705 15.8368C23.6173 12.4799 14.2929 12.1712 8.89643 13.8091C8.48008 13.9353 8.03066 13.8908 7.64703 13.6856C7.2634 13.4805 6.97701 13.1313 6.85083 12.7149C6.72466 12.2986 6.76904 11.8491 6.97422 11.4656C7.17941 11.0819 7.52859 10.7955 7.94494 10.6693C14.1397 8.78919 24.4379 9.15241 30.9457 13.0146C31.131 13.1245 31.2929 13.2699 31.422 13.4423C31.5511 13.6148 31.645 13.811 31.6984 14.0197C31.7516 14.2285 31.7632 14.4456 31.7326 14.6588C31.7019 14.8721 31.6295 15.0773 31.5195 15.2625C31.4097 15.448 31.2644 15.6099 31.0919 15.7391C30.9194 15.8683 30.7232 15.9623 30.5143 16.0156C30.3055 16.0688 30.0882 16.0805 29.8748 16.0497C29.6616 16.0189 29.4558 15.947 29.2705 15.8368Z" fill="#0F172A"/>
</svg>
