<svg width="21" height="20" viewBox="0 0 21 20" fill="none" xmlns="http://www.w3.org/2000/svg">
<g id="SVG">
<path id="Vector" d="M7.40841 16.8758C13.6976 16.8758 17.1376 11.665 17.1376 7.14663C17.1376 6.9983 17.1376 6.8508 17.1276 6.70496C17.7969 6.2204 18.3745 5.62048 18.8334 4.9333C18.2093 5.20997 17.5472 5.39143 16.8692 5.47163C17.5831 5.04418 18.1174 4.37192 18.3726 3.57996C17.7015 3.9782 16.9673 4.2589 16.2017 4.40996C15.6862 3.86144 15.0043 3.49816 14.2614 3.37638C13.5186 3.25461 12.7563 3.38113 12.0927 3.73635C11.429 4.09158 10.901 4.65569 10.5903 5.34135C10.2797 6.027 10.2037 6.79595 10.3742 7.52913C9.01474 7.461 7.68475 7.10774 6.47062 6.49227C5.25649 5.87681 4.18535 5.0129 3.32675 3.95663C2.88951 4.7093 2.75557 5.60031 2.95219 6.44827C3.14882 7.29622 3.66122 8.03736 4.38508 8.5208C3.84113 8.50505 3.30894 8.35871 2.83341 8.09413V8.13746C2.83374 8.92688 3.10708 9.69188 3.60708 10.3028C4.10708 10.9136 4.80297 11.3328 5.57675 11.4891C5.07326 11.6264 4.54499 11.6463 4.03258 11.5475C4.25105 12.227 4.67648 12.8213 5.24935 13.2471C5.82223 13.673 6.51389 13.9091 7.22758 13.9225C6.51851 14.4796 5.70657 14.8915 4.83819 15.1346C3.9698 15.3777 3.06202 15.4472 2.16675 15.3391C3.73058 16.3427 5.55024 16.875 7.40841 16.8725" fill="#64748B"/>
</g>
</svg>
