<svg width="128" height="36" viewBox="0 0 128 36" fill="none" xmlns="http://www.w3.org/2000/svg">
<path fill-rule="evenodd" clip-rule="evenodd" d="M66.1742 7.31933C66.1742 8.76477 64.991 9.92917 63.522 9.92917C62.053 9.92917 60.8697 8.76477 60.8697 7.31933C60.8697 5.87388 62.0123 4.70947 63.522 4.70947C65.0317 4.74962 66.1742 5.91401 66.1742 7.31933ZM55.2387 12.5791C55.2387 12.8201 55.2387 13.2216 55.2387 13.2216C55.2387 13.2216 53.9739 11.6154 51.2807 11.6154C46.8331 11.6154 43.3648 14.9482 43.3648 19.5655C43.3648 24.1428 46.7924 27.5155 51.2807 27.5155C54.0146 27.5155 55.2387 25.8694 55.2387 25.8694V26.552C55.2387 26.8731 55.4836 27.1141 55.81 27.1141H59.1151V12.0171C59.1151 12.0171 56.0956 12.0171 55.81 12.0171C55.4836 12.0171 55.2387 12.2981 55.2387 12.5791ZM55.2387 22.2558C54.6267 23.139 53.4026 23.9019 51.9337 23.9019C49.3222 23.9019 47.3227 22.2959 47.3227 19.5655C47.3227 16.8353 49.3222 15.2293 51.9337 15.2293C53.3617 15.2293 54.6675 16.0322 55.2387 16.8754V22.2558ZM61.5633 12.0171H65.4805V27.1141H61.5633V12.0171ZM120.076 11.6154C117.383 11.6154 116.118 13.2216 116.118 13.2216V4.74962H112.201V27.1141C112.201 27.1141 115.22 27.1141 115.506 27.1141C115.832 27.1141 116.077 26.833 116.077 26.552V25.8694C116.077 25.8694 117.342 27.5155 120.036 27.5155C124.483 27.5155 127.952 24.1428 127.952 19.5655C127.952 14.9883 124.483 11.6154 120.076 11.6154ZM119.424 23.8617C117.914 23.8617 116.73 23.0988 116.118 22.2154V16.8353C116.73 16.0322 118.036 15.189 119.424 15.189C122.035 15.189 124.034 16.7951 124.034 19.5254C124.034 22.2558 122.035 23.8617 119.424 23.8617ZM110.161 18.1602V27.1542H106.244V18.6019C106.244 16.1125 105.427 15.1087 103.224 15.1087C102.041 15.1087 100.817 15.711 100.041 16.5943V27.1141H96.1244V12.0171H99.2254C99.5519 12.0171 99.7968 12.2981 99.7968 12.5791V13.2216C100.939 12.0572 102.449 11.6154 103.959 11.6154C105.673 11.6154 107.101 12.0974 108.243 13.0609C109.631 14.1851 110.161 15.6306 110.161 18.1602ZM86.6171 11.6154C83.9239 11.6154 82.6591 13.2216 82.6591 13.2216V4.74962H78.7418V27.1141C78.7418 27.1141 81.7612 27.1141 82.0469 27.1141C82.3735 27.1141 82.6182 26.833 82.6182 26.552V25.8694C82.6182 25.8694 83.8831 27.5155 86.5762 27.5155C91.0238 27.5155 94.4921 24.1428 94.4921 19.5655C94.533 14.9883 91.0647 11.6154 86.6171 11.6154ZM85.9641 23.8617C84.4544 23.8617 83.2712 23.0988 82.6591 22.2154V16.8353C83.2712 16.0322 84.5768 15.189 85.9641 15.189C88.5756 15.189 90.575 16.7951 90.575 19.5254C90.575 22.2558 88.5756 23.8617 85.9641 23.8617ZM75.3551 11.6154C76.5384 11.6154 77.1505 11.8163 77.1505 11.8163V15.3898C77.1505 15.3898 73.8862 14.3057 71.846 16.5943V27.1542H67.9288V12.0171C67.9288 12.0171 70.9483 12.0171 71.2339 12.0171C71.5604 12.0171 71.805 12.2981 71.805 12.5791V13.2216C72.5396 12.3785 74.131 11.6154 75.3551 11.6154ZM32.8662 25.1796C32.6889 24.7595 32.5117 24.3044 32.3343 23.9194C32.0506 23.2893 31.767 22.6942 31.5188 22.1343L31.4834 22.0991C29.0368 16.8485 26.413 11.528 23.6473 6.27744L23.5408 6.06742C23.2573 5.54236 22.9736 4.9823 22.69 4.42224C22.3354 3.79216 21.9808 3.12709 21.4135 2.49703C20.2789 1.09687 18.6478 0.326782 16.9104 0.326782C15.1375 0.326782 13.5421 1.09687 12.372 2.42702C11.8401 3.05709 11.45 3.72216 11.0955 4.35223C10.8119 4.91228 10.5282 5.47235 10.2445 5.99741L10.1381 6.20744C7.40794 11.458 4.74865 16.7786 2.30211 22.0292L2.26665 22.0991C2.01845 22.6592 1.73479 23.2543 1.45114 23.8845C1.27385 24.2694 1.09657 24.6895 0.919278 25.1446C0.458334 26.4397 0.316505 27.6648 0.493791 28.9249C0.883816 31.5503 2.65668 33.7555 5.10323 34.7356C6.02511 35.1207 6.98246 35.2956 7.97526 35.2956C8.25891 35.2956 8.61348 35.2607 8.89714 35.2256C10.0672 35.0856 11.2727 34.7006 12.4428 34.0355C13.8967 33.2303 15.2794 32.0752 16.8396 30.3952C18.3997 32.0752 19.8179 33.2303 21.2362 34.0355C22.4063 34.7006 23.6119 35.0856 24.7819 35.2256C25.0656 35.2607 25.4202 35.2956 25.7037 35.2956C26.6966 35.2956 27.6894 35.1207 28.5759 34.7356C31.0579 33.7555 32.7952 31.5153 33.1853 28.9249C33.4689 27.6998 33.327 26.4746 32.8662 25.1796ZM16.9079 26.6322C15.0687 24.322 13.8766 22.1477 13.4679 20.3129C13.2976 19.5316 13.2635 18.852 13.3657 18.2405C13.4339 17.6969 13.6381 17.2214 13.9108 16.8137C14.5578 15.8964 15.6478 15.3188 16.9079 15.3188C18.1681 15.3188 19.2921 15.8624 19.9052 16.8137C20.1776 17.2214 20.3819 17.6969 20.4501 18.2405C20.5523 18.852 20.5182 19.5655 20.3479 20.3129C19.9392 22.1135 18.7471 24.2879 16.9079 26.6322ZM30.7313 28.3912C30.4885 30.1698 29.2753 31.7092 27.5767 32.3933C26.7447 32.7352 25.8433 32.8378 24.942 32.7352C24.0754 32.6328 23.2087 32.359 22.3075 31.846C21.0593 31.1618 19.8114 30.1015 18.3555 28.528C20.6434 25.7574 22.03 23.2261 22.55 20.9687C22.7926 19.9083 22.8274 18.9506 22.7234 18.0612C22.5848 17.2061 22.2727 16.4194 21.7874 15.7353C20.7128 14.196 18.9101 13.3067 16.8995 13.3067C14.8889 13.3067 13.0861 14.2303 12.0116 15.7353C11.5262 16.4194 11.2143 17.2061 11.0756 18.0612C10.9369 18.9506 10.9716 19.9426 11.249 20.9687C11.769 23.2261 13.1902 25.7916 15.4435 28.5622C14.0223 30.1357 12.7395 31.1961 11.4916 31.8801C10.5902 32.3933 9.72361 32.6669 8.85697 32.7696C7.92098 32.872 7.01967 32.7352 6.22235 32.4275C4.52371 31.7433 3.3104 30.2042 3.06773 28.4254C2.96374 27.5703 3.03306 26.7152 3.37973 25.7574C3.48373 25.4153 3.65705 25.0734 3.83038 24.6628C4.07305 24.1156 4.35038 23.5341 4.62771 22.9526L4.66237 22.8843C7.05434 17.7877 9.61962 12.5884 12.289 7.52607L12.3929 7.32084C12.6702 6.80776 12.9476 6.26048 13.2249 5.7474C13.5023 5.20012 13.8142 4.68703 14.1955 4.24237C14.9235 3.42144 15.8942 2.97678 16.9689 2.97678C18.0434 2.97678 19.0141 3.42144 19.7421 4.24237C20.1234 4.68703 20.4353 5.20012 20.7128 5.7474C20.9901 6.26048 21.2674 6.80776 21.5447 7.32084L21.6487 7.52607C24.2833 12.6227 26.8486 17.8218 29.2406 22.9184V22.9526C29.5179 23.4999 29.7606 24.1156 30.038 24.6628C30.2113 25.0734 30.3846 25.4153 30.4885 25.7574C30.766 26.6467 30.8699 27.5018 30.7313 28.3912Z" fill="#F8FAFC"/>
</svg>
