<svg width="47" height="46" viewBox="0 0 47 46" fill="none" xmlns="http://www.w3.org/2000/svg">
<path d="M11.3237 39.4738C12.5006 40.4514 14.3977 41.2019 17.3426 40.7026C17.348 41.4715 17.3544 42.1431 17.3596 42.6867C17.3652 43.2734 17.3693 43.7109 17.3693 43.9605C17.3693 44.1583 17.3004 44.3358 17.1827 44.4434C17.0824 44.5351 16.8741 44.6424 16.4415 44.5704C7.63083 41.6209 1.2832 33.3015 1.2832 23.5009C1.2832 11.2301 11.2313 1.28345 23.4978 1.28345C35.7684 1.28345 45.7165 11.2302 45.7165 23.5009C45.7165 33.3008 39.3733 41.614 30.5682 44.5684C30.1254 44.6471 29.9165 44.539 29.8179 44.449C29.7014 44.3426 29.6318 44.1638 29.6318 43.9605C29.6318 43.7155 29.6348 43.2848 29.6389 42.7063C29.641 42.4103 29.6434 42.0756 29.6457 41.7074C29.6527 40.6217 29.6597 39.249 29.6597 37.7295C29.6597 36.0608 29.2309 34.7794 28.6179 33.8977C30.8862 33.5634 33.2005 32.8882 35.0225 31.3628C37.1231 29.6042 38.49 26.7856 38.49 22.3127C38.49 19.8202 37.6434 17.7511 36.2283 16.1088C36.5419 15.178 37.0448 12.9267 35.893 10.0209L35.8059 9.80121L35.5809 9.72901L35.4282 10.2051C35.5809 9.72901 35.5804 9.72886 35.58 9.7287L35.5789 9.72837L35.5767 9.72768L35.5718 9.72617L35.5598 9.72265C35.5509 9.72009 35.54 9.71714 35.5272 9.71393C35.5015 9.70751 35.4682 9.70006 35.427 9.6926C35.3446 9.67767 35.2312 9.66279 35.086 9.6561C34.7952 9.64268 34.3793 9.66217 33.8311 9.77772C32.7675 10.0019 31.2097 10.5868 29.0983 11.9903C27.3024 11.5145 25.3952 11.278 23.5031 11.2684L23.498 11.2684C21.6048 11.278 19.6963 11.5145 17.9026 11.9903C15.7898 10.5868 14.2307 10.0019 13.166 9.7777C12.6173 9.66217 12.2011 9.64269 11.91 9.6561C11.7646 9.66279 11.6512 9.67766 11.5687 9.69258C11.5275 9.70003 11.4941 9.70748 11.4685 9.71389C11.4557 9.7171 11.4448 9.72004 11.4358 9.7226L11.4239 9.72611L11.4189 9.72762L11.4168 9.72831L11.4157 9.72863C11.4152 9.72879 11.4148 9.72894 11.5673 10.2051L11.4148 9.72894L11.1894 9.80116L11.1024 10.0212C9.9534 12.9267 10.4563 15.1779 10.7713 16.1095C9.3589 17.7508 8.50554 19.8194 8.50554 22.3127C8.50554 26.7746 9.87039 29.5938 11.9658 31.3578C13.7858 32.89 16.0977 33.5738 18.3627 33.9143C17.9547 34.5067 17.6301 35.2779 17.461 36.2243C16.8336 36.4766 15.9023 36.7417 14.9244 36.6545C13.8447 36.5581 12.6627 36.0303 11.7336 34.4413L11.7312 34.437L11.7175 34.4131C11.7059 34.3933 11.6895 34.3658 11.6683 34.3317C11.6259 34.2635 11.5642 34.1686 11.4832 34.0554C11.3217 33.8296 11.0812 33.5276 10.7624 33.2195C10.1283 32.6064 9.15358 31.9406 7.85526 31.8493L7.84087 31.8482L7.82645 31.8481L7.82017 32.348C7.82645 31.8481 7.82629 31.8481 7.82612 31.8481L7.82574 31.848L7.82482 31.848L7.82236 31.848L7.81505 31.848L7.79132 31.8481C7.77168 31.8482 7.74446 31.8487 7.71132 31.8499C7.64549 31.8522 7.55405 31.8573 7.45089 31.8687C7.26444 31.8893 6.964 31.9373 6.72116 32.0757C6.59441 32.1478 6.43689 32.2708 6.34873 32.4729C6.25374 32.6905 6.27501 32.9164 6.35721 33.1122C6.50071 33.4541 6.86219 33.7865 7.38201 34.1415L7.41521 34.1642L7.44752 34.1793L7.44827 34.1797L7.44851 34.1798L7.44979 34.1804L7.45169 34.1814C7.45714 34.1842 7.46787 34.1899 7.4834 34.1987C7.51446 34.2163 7.56475 34.2465 7.63061 34.2915C7.76227 34.3815 7.95643 34.5311 8.18384 34.7591C8.63554 35.2119 9.22522 35.9806 9.71547 37.2197C9.71938 37.2317 9.72477 37.2477 9.73176 37.2675C9.74579 37.3073 9.76629 37.3622 9.79422 37.4298C9.85002 37.5649 9.93579 37.7513 10.0593 37.9681C10.3059 38.4011 10.7063 38.961 11.3237 39.4738Z" fill="#F8FAFC" stroke="#F8FAFC"/>
</svg>
