<svg width="107" height="36" viewBox="0 0 107 36" fill="none" xmlns="http://www.w3.org/2000/svg">
<path fill-rule="evenodd" clip-rule="evenodd" d="M14.4597 12.7403V16.425L23.2602 16.4212C22.9904 18.4534 22.3054 19.9414 21.2641 20.9829C19.9807 22.2672 17.9778 23.6808 14.4597 23.6808C9.03723 23.6808 4.7944 19.3072 4.7944 13.8799C4.7944 8.4527 9.03723 4.07886 14.4597 4.07886C17.3862 4.07886 19.5223 5.23008 21.0999 6.7102L23.6978 4.11019C21.4993 2.00745 18.5728 0.394165 14.4631 0.394165C7.03776 0.394165 0.791992 6.44785 0.791992 13.8799C0.791992 21.3119 7.03776 27.3655 14.4631 27.3655C18.4707 27.3655 21.496 26.0499 23.8621 23.5831C26.2958 21.1474 27.0516 17.7291 27.0516 14.9645C27.0516 14.1422 26.9893 13.3827 26.8682 12.7403H14.4597ZM88.6929 26.8369V1.38476H84.9759V26.8369H88.6929ZM37.2375 27.3694C42.0338 27.3694 45.9428 23.6847 45.9428 18.6843C45.9428 13.6487 42.0338 9.99931 37.2375 9.99931C32.4395 9.99931 28.5304 13.6487 28.5304 18.6843C28.5304 23.6847 32.4395 27.3694 37.2375 27.3694ZM37.2375 13.4216C39.8665 13.4216 42.1324 15.5596 42.1324 18.6843C42.1324 21.7739 39.8665 23.9471 37.2375 23.9471C34.6084 23.9471 32.3425 21.7778 32.3425 18.6843C32.3425 15.5596 34.6084 13.4216 37.2375 13.4216ZM56.0198 27.3694C60.8161 27.3694 64.7251 23.6847 64.7251 18.6843C64.7251 13.6487 60.8161 9.99931 56.0198 9.99931C51.2218 9.99931 47.3127 13.6526 47.3127 18.6843C47.3127 23.6847 51.2218 27.3694 56.0198 27.3694ZM56.0198 13.4216C58.6488 13.4216 60.9147 15.5596 60.9147 18.6843C60.9147 21.7739 58.6488 23.9471 56.0198 23.9471C53.3906 23.9471 51.1248 21.7778 51.1248 18.6843C51.1248 15.5596 53.3906 13.4216 56.0198 13.4216ZM82.7255 10.5279V26.1163C82.7255 32.5303 78.9446 35.15 74.4769 35.15C70.2703 35.15 67.7381 32.3345 66.7834 30.0322L70.1009 28.6499C70.6923 30.0635 72.1402 31.7315 74.4717 31.7315C77.3326 31.7315 79.1054 29.9655 79.1054 26.6411V25.392H78.9722C78.1195 26.4453 76.4763 27.3655 74.4025 27.3655C70.0628 27.3655 66.0863 23.5829 66.0863 18.7157C66.0863 13.8133 70.0628 9.99931 74.4025 9.99931C76.4711 9.99931 78.1161 10.9194 78.9722 11.9415H79.1054V10.5279H82.7255ZM79.3752 18.7157C79.3752 15.6575 77.336 13.4216 74.7415 13.4216C72.1125 13.4216 69.9106 15.6575 69.9106 18.7157C69.9106 21.7427 72.1125 23.9471 74.7415 23.9471C77.336 23.9471 79.3752 21.7427 79.3752 18.7157ZM103.179 21.5428L106.136 23.5165C105.182 24.93 102.881 27.3655 98.9047 27.3655C93.9753 27.3655 90.2928 23.5517 90.2928 18.6806C90.2928 13.5157 94.0064 9.99549 98.4792 9.99549C102.983 9.99549 105.185 13.5823 105.906 15.5206L106.301 16.5075L94.6982 21.3158C95.5873 23.0583 96.9675 23.9472 98.9047 23.9472C100.845 23.9472 102.193 22.9918 103.179 21.5428ZM94.0721 18.4181L101.828 15.1955C101.402 14.1108 100.119 13.3551 98.6072 13.3551C96.6718 13.3551 93.9753 15.0663 94.0721 18.4181Z" fill="#F8FAFC"/>
</svg>
