<svg width="134" height="36" viewBox="0 0 134 36" fill="none" xmlns="http://www.w3.org/2000/svg">
<path d="M52.2716 13.5862C50.584 13.5862 49.7492 14.9142 49.3661 15.7709C49.1521 16.2492 49.0922 16.6274 48.9187 16.6274C48.6741 16.6274 48.8493 16.2986 48.6492 15.5697C48.3858 14.6106 47.5921 13.5862 45.9057 13.5862C44.1326 13.5862 43.3735 15.0842 43.0135 15.9074C42.7673 16.4701 42.7671 16.6274 42.5778 16.6274C42.3035 16.6274 42.5307 16.1803 42.6541 15.6548C42.8972 14.6202 42.7124 13.8294 42.7124 13.8294H39.9019V24.398H43.7382C43.7382 24.398 43.7382 19.9812 43.7382 19.1397C43.7382 18.1025 44.172 16.7865 44.9157 16.7865C45.7749 16.7865 45.9469 17.4463 45.9469 18.6683C45.9469 19.7761 45.9469 24.4003 45.9469 24.4003H49.7987C49.7987 24.4003 49.7987 19.9566 49.7987 19.1397C49.7987 18.2165 50.1755 16.7865 50.9819 16.7865C51.853 16.7865 52.0073 17.7135 52.0073 18.6683C52.0073 19.6231 52.0073 24.398 52.0073 24.398H55.7898C55.7898 24.398 55.7898 20.2105 55.7898 18.1831C55.7898 15.425 54.8176 13.5862 52.2716 13.5862Z" fill="#F8FAFC"/>
<path d="M117.39 13.5862C115.702 13.5862 114.867 14.9142 114.484 15.7709C114.27 16.2492 114.211 16.6274 114.037 16.6274C113.792 16.6274 113.956 16.2098 113.768 15.5697C113.487 14.6157 112.787 13.5862 111.024 13.5862C109.251 13.5862 108.492 15.0842 108.132 15.9074C107.885 16.4701 107.885 16.6274 107.697 16.6274C107.422 16.6274 107.649 16.1803 107.773 15.6548C108.016 14.6202 107.831 13.8294 107.831 13.8294H105.02V24.398H108.856C108.856 24.398 108.856 19.9812 108.856 19.1397C108.856 18.1025 109.29 16.7865 110.034 16.7865C110.893 16.7865 111.065 17.4463 111.065 18.6683C111.065 19.7761 111.065 24.4003 111.065 24.4003H114.917C114.917 24.4003 114.917 19.9566 114.917 19.1397C114.917 18.2165 115.294 16.7865 116.1 16.7865C116.972 16.7865 117.126 17.7135 117.126 18.6683C117.126 19.6231 117.126 24.398 117.126 24.398H120.909C120.909 24.398 120.909 20.2105 120.909 18.1831C120.909 15.425 119.936 13.5862 117.39 13.5862Z" fill="#F8FAFC"/>
<path d="M61.4093 21.928C60.4919 22.1399 60.0163 21.8573 60.0163 21.2492C60.0163 20.4163 60.8778 20.0827 62.1076 20.0827C62.6497 20.0827 63.1594 20.1296 63.1594 20.1296C63.1594 20.4861 62.3855 21.7027 61.4093 21.928ZM62.3432 13.5886C59.4046 13.5886 57.2959 14.669 57.2959 14.669V17.8448C57.2959 17.8448 59.6245 16.506 61.5136 16.506C63.0214 16.506 63.2066 17.3192 63.1379 17.9941C63.1379 17.9941 62.7032 17.879 61.3761 17.879C58.2493 17.879 56.6709 19.3001 56.6709 21.5788C56.6709 23.7402 58.4448 24.6438 59.9394 24.6438C62.1203 24.6438 63.079 23.1782 63.3736 22.4829C63.578 22.0005 63.6153 21.6755 63.799 21.6755C64.0082 21.6755 63.9377 21.9086 63.9276 22.3888C63.9099 23.2295 63.9495 23.865 64.0828 24.4004H66.9743V19.1993C66.9743 15.9519 65.8253 13.5886 62.3432 13.5886Z" fill="#F8FAFC"/>
<path d="M73.2915 24.4005H77.1279V10.6302H73.2915V24.4005Z" fill="#F8FAFC"/>
<path d="M81.3531 19.1161C81.3531 18.1659 82.2359 17.3013 83.8567 17.3013C85.6226 17.3013 87.043 18.1516 87.3615 18.3446V14.669C87.3615 14.669 86.2394 13.5886 83.4813 13.5886C80.574 13.5886 78.1528 15.2899 78.1528 18.9516C78.1528 22.6133 80.35 24.6438 83.4735 24.6438C85.9134 24.6438 87.3677 23.3033 87.3677 23.3033V19.812C86.9076 20.0696 85.6254 20.9593 83.8743 20.9593C82.0199 20.9593 81.3531 20.1063 81.3531 19.1161Z" fill="#F8FAFC"/>
<path d="M95.1322 13.5888C92.9114 13.5888 92.0666 15.6934 91.8961 16.0588C91.7254 16.4242 91.6412 16.6344 91.5015 16.6299C91.2591 16.622 91.4281 16.1813 91.5225 15.896C91.7012 15.3568 92.0797 13.9424 92.0797 12.204C92.0797 11.0249 91.9202 10.6302 91.9202 10.6302H88.6084V24.4005H92.4448C92.4448 24.4005 92.4448 19.9988 92.4448 19.1424C92.4448 18.2858 92.7866 16.7891 93.7531 16.7891C94.5536 16.7891 94.8043 17.3823 94.8043 18.5767C94.8043 19.7709 94.8043 24.4005 94.8043 24.4005H98.6407C98.6407 24.4005 98.6407 21.1796 98.6407 18.8065C98.6407 16.0936 98.1912 13.5888 95.1322 13.5888Z" fill="#F8FAFC"/>
<path d="M99.8853 13.844V24.4004H103.722V13.844C103.722 13.844 103.077 14.2212 101.807 14.2212C100.538 14.2212 99.8853 13.844 99.8853 13.844Z" fill="#F8FAFC"/>
<path d="M101.793 10.5234C100.496 10.5234 99.4448 11.2097 99.4448 12.0562C99.4448 12.9025 100.496 13.5888 101.793 13.5888C103.09 13.5888 104.141 12.9025 104.141 12.0562C104.141 11.2097 103.09 10.5234 101.793 10.5234Z" fill="#F8FAFC"/>
<path d="M68.2134 13.844V24.4004H72.0497V13.844C72.0497 13.844 71.4049 14.2212 70.1355 14.2212C68.8661 14.2212 68.2134 13.844 68.2134 13.844Z" fill="#F8FAFC"/>
<path d="M70.1207 10.5234C68.8239 10.5234 67.7725 11.2097 67.7725 12.0562C67.7725 12.9025 68.8239 13.5888 70.1207 13.5888C71.4178 13.5888 72.4692 12.9025 72.4692 12.0562C72.4692 11.2097 71.4178 10.5234 70.1207 10.5234Z" fill="#F8FAFC"/>
<path d="M127.477 22.1293C126.598 22.1293 125.951 21.0135 125.951 19.4587C125.951 17.9489 126.615 16.7888 127.447 16.7888C128.515 16.7888 128.97 17.7678 128.97 19.4587C128.97 21.2177 128.551 22.1293 127.477 22.1293ZM128.531 13.5862C126.559 13.5862 125.655 15.065 125.262 15.9074C125.002 16.464 125.016 16.6274 124.826 16.6274C124.552 16.6274 124.779 16.1803 124.903 15.6548C125.145 14.6202 124.96 13.8294 124.96 13.8294H122.15V27.3167H125.987C125.987 27.3167 125.987 25.1098 125.987 23.0406C126.44 23.8107 127.281 24.6336 128.578 24.6336C131.352 24.6336 132.748 22.2865 132.748 19.1152C132.748 15.5208 131.076 13.5862 128.531 13.5862Z" fill="#F8FAFC"/>
<path d="M26.3507 16.7786C26.6086 16.7478 26.8559 16.7464 27.0829 16.7786C27.2144 16.4771 27.2371 15.9575 27.1187 15.3915C26.9429 14.5504 26.7051 14.0413 26.2136 14.1205C25.7221 14.1997 25.704 14.8092 25.8797 15.6504C25.9785 16.1236 26.1545 16.5279 26.3507 16.7786Z" fill="#F8FAFC"/>
<path d="M22.1299 17.444C22.4816 17.5984 22.6978 17.7007 22.7823 17.6112C22.8367 17.5556 22.8206 17.4492 22.7366 17.312C22.563 17.0286 22.2058 16.7413 21.8272 16.5799C21.0525 16.2465 20.1285 16.3574 19.4157 16.8694C19.1806 17.0419 18.9575 17.2807 18.9894 17.4257C18.9998 17.4726 19.035 17.5079 19.1175 17.5195C19.3116 17.5417 19.9895 17.1989 20.7703 17.1511C21.3215 17.1174 21.7782 17.2898 22.1299 17.444Z" fill="#F8FAFC"/>
<path d="M21.4204 17.8478C20.9623 17.9201 20.7096 18.0712 20.5474 18.2116C20.4091 18.3324 20.3234 18.4662 20.3242 18.5603C20.3245 18.6051 20.344 18.6308 20.3593 18.6439C20.3802 18.6622 20.4049 18.6724 20.4346 18.6724C20.5381 18.6724 20.7697 18.5794 20.7697 18.5794C21.4072 18.3512 21.8277 18.3789 22.2444 18.4264C22.4747 18.4522 22.5835 18.4665 22.634 18.3876C22.6489 18.3649 22.667 18.3159 22.6209 18.2412C22.5136 18.0671 22.0512 17.7729 21.4204 17.8478Z" fill="#F8FAFC"/>
<path d="M24.9245 19.3297C25.2354 19.4826 25.5778 19.4225 25.6894 19.1957C25.8008 18.969 25.639 18.6613 25.3279 18.5083C25.0169 18.3557 24.6745 18.4155 24.563 18.6423C24.4516 18.8692 24.6133 19.1768 24.9245 19.3297Z" fill="#F8FAFC"/>
<path d="M26.9228 17.5824C26.6701 17.5781 26.4607 17.8556 26.4547 18.2019C26.4488 18.5485 26.6489 18.8328 26.9016 18.8371C27.1542 18.8415 27.3639 18.564 27.3696 18.2176C27.3755 17.8709 27.1754 17.5866 26.9228 17.5824Z" fill="#F8FAFC"/>
<path d="M9.9537 23.8299C9.89085 23.7512 9.7876 23.7751 9.6876 23.7985C9.61776 23.8148 9.53864 23.8331 9.45189 23.8316C9.26606 23.828 9.1087 23.7488 9.02033 23.6129C8.90523 23.4361 8.91188 23.1726 9.03898 22.871C9.05608 22.8302 9.07628 22.785 9.09826 22.7358C9.30083 22.2811 9.64002 21.5202 9.25924 20.7951C8.97264 20.2495 8.50523 19.9095 7.94324 19.8382C7.40373 19.7698 6.84828 19.9698 6.49398 20.3607C5.93503 20.9773 5.84768 21.8165 5.95577 22.1131C5.99541 22.2216 6.05734 22.2516 6.10239 22.2578C6.19746 22.2705 6.33808 22.2013 6.42619 21.9643C6.43248 21.9473 6.44087 21.9208 6.45138 21.8873C6.49068 21.762 6.56376 21.5287 6.68348 21.3417C6.82783 21.1162 7.05265 20.9609 7.31654 20.9044C7.58539 20.8468 7.86016 20.8981 8.09017 21.0488C8.48178 21.3048 8.63255 21.7846 8.46538 22.2425C8.37898 22.4792 8.23858 22.9319 8.26958 23.304C8.33215 24.0568 8.7952 24.3592 9.21128 24.3914C9.6158 24.4065 9.8985 24.1796 9.97003 24.0135C10.0122 23.9153 9.9766 23.8556 9.9537 23.8299Z" fill="#F8FAFC"/>
<path d="M13.7975 10.0023C15.1169 8.4777 16.741 7.15228 18.1959 6.40804C18.2462 6.38219 18.2996 6.43692 18.2724 6.48625C18.1568 6.69546 17.9345 7.14348 17.8639 7.48327C17.853 7.53623 17.9106 7.57605 17.9552 7.54561C18.8604 6.92863 20.435 6.2675 21.8161 6.18252C21.8754 6.17884 21.9041 6.25495 21.8569 6.29117C21.6469 6.45234 21.4171 6.67526 21.2493 6.90078C21.2207 6.93915 21.2477 6.99442 21.2955 6.99471C22.2653 7.00162 23.6324 7.341 24.5235 7.84082C24.5838 7.87456 24.5408 7.99131 24.4734 7.97586C23.1252 7.66695 20.9183 7.43248 18.6259 7.99162C16.5793 8.49085 15.0172 9.26149 13.8777 10.0902C13.8201 10.1323 13.7509 10.0562 13.7975 10.0023ZM20.3685 24.7735C20.3684 24.7735 20.3686 24.7738 20.3685 24.7735V24.7735ZM25.8092 25.4158C25.8483 25.3994 25.8754 25.3548 25.8707 25.3105C25.8653 25.2559 25.8166 25.2162 25.762 25.2219C25.762 25.2219 22.9465 25.6385 20.2866 24.665C20.5764 23.7233 21.3467 24.0633 22.5111 24.1573C24.6099 24.2824 26.4909 23.9758 27.8811 23.5767C29.0858 23.2312 30.6679 22.5495 31.8968 21.5795C32.3113 22.4901 32.4576 23.492 32.4576 23.492C32.4576 23.492 32.7785 23.4347 33.0466 23.5996C33.2999 23.7556 33.4858 24.0797 33.3588 24.9177C33.1004 26.4833 32.435 27.754 31.3166 28.9231C30.6357 29.6558 29.8092 30.293 28.8636 30.7563C28.3613 31.0201 27.8266 31.2484 27.2617 31.4327C23.0453 32.8098 18.7295 31.2959 17.3383 28.0449C17.2273 27.8004 17.1333 27.5447 17.0594 27.277C16.4665 25.1346 16.9698 22.5643 18.5431 20.9464C18.5429 20.9464 18.5432 20.9462 18.5431 20.9464C18.64 20.8434 18.739 20.7211 18.739 20.5685C18.739 20.4408 18.6579 20.306 18.5875 20.2105C18.037 19.4122 16.1304 18.0517 16.5131 15.4189C16.7879 13.5274 18.4421 12.1954 19.9843 12.2743C20.1146 12.2811 20.2452 12.289 20.3753 12.2966C21.0436 12.3363 21.6266 12.4221 22.1768 12.4449C23.0977 12.4848 23.9258 12.3508 24.9065 11.5337C25.2373 11.258 25.5025 11.0191 25.9514 10.943C25.9986 10.935 26.1159 10.8928 26.3505 10.9039C26.5898 10.9167 26.8178 10.9825 27.0226 11.1188C27.809 11.642 27.9204 12.9091 27.9611 13.8362C27.9844 14.3653 28.0485 15.6455 28.0702 16.0131C28.1203 16.8534 28.3412 16.9719 28.7881 17.119C29.0394 17.2019 29.2727 17.2635 29.6166 17.36C30.6573 17.6522 31.2745 17.9486 31.6633 18.3295C31.8954 18.5673 32.0033 18.8203 32.0366 19.0614C32.1592 19.9567 31.3414 21.0627 29.1765 22.0677C26.8099 23.166 23.9389 23.4442 21.9552 23.2233C21.8031 23.2064 21.262 23.1451 21.2602 23.1448C19.6734 22.9311 18.7683 24.9818 19.7206 26.3866C20.3344 27.292 22.0061 27.8813 23.6787 27.8816C27.5138 27.882 30.4614 26.2444 31.5578 24.8301C31.5907 24.7877 31.5939 24.7832 31.6456 24.7049C31.6995 24.6237 31.6551 24.5788 31.5879 24.6249C30.692 25.2378 26.7129 27.6714 22.4568 26.9393C22.4568 26.9393 21.9396 26.8542 21.4675 26.6706C21.0924 26.5247 20.3072 26.1634 20.2117 25.3579C23.6465 26.4201 25.8092 25.4158 25.8092 25.4158ZM6.9433 17.253C5.74875 17.4853 4.69589 18.1623 4.05212 19.0974C3.66728 18.7765 2.9504 18.1552 2.82381 17.9131C1.79593 15.9615 3.94553 12.1669 5.4472 10.0239C9.15834 4.72795 14.9707 0.719343 17.6615 1.4467C18.0989 1.5705 19.5476 3.25016 19.5476 3.25016C19.5476 3.25016 16.8581 4.74253 14.3638 6.82272C11.0029 9.41052 8.46417 13.1716 6.9433 17.253ZM8.95058 26.209C8.76978 26.2398 8.58537 26.2522 8.39936 26.2476C6.60203 26.1994 4.66056 24.5813 4.46763 22.6624C4.2544 20.5413 5.33815 18.909 7.257 18.5219C7.48641 18.4757 7.76365 18.449 8.06259 18.4646C9.13771 18.5235 10.7221 19.3489 11.084 21.6912C11.4046 23.7654 10.8954 25.8773 8.95058 26.209ZM33.2981 22.4531C33.2827 22.3987 33.1824 22.0321 33.0446 21.5904C32.9068 21.1483 32.7641 20.8374 32.7641 20.8374C33.3169 20.0098 33.3267 19.2697 33.2532 18.8504C33.1747 18.3308 32.9584 17.888 32.5224 17.4303C32.0863 16.9726 31.1946 16.5039 29.9413 16.1519C29.7981 16.1117 29.3254 15.982 29.2839 15.9694C29.2806 15.9423 29.2493 14.4192 29.2209 13.7654C29.2 13.2928 29.1595 12.5549 28.9305 11.8281C28.6577 10.8443 28.1822 9.9835 27.5889 9.43274C29.2264 7.73534 30.2487 5.86537 30.2463 4.26118C30.2415 1.17616 26.4527 0.242762 21.7838 2.17607C21.7789 2.17808 20.8016 2.59249 20.7945 2.59595C20.7901 2.59177 19.0061 0.841269 18.9793 0.817894C13.6559 -3.82529 -2.98789 14.6747 2.33346 19.1679L3.49639 20.1531C3.19474 20.9345 3.0762 21.8298 3.17303 22.7927C3.29731 24.0292 3.93516 25.2146 4.96903 26.1303C5.95047 27 7.24083 27.5503 8.49303 27.5492C10.5637 32.3213 15.2952 35.2487 20.8429 35.4135C26.7938 35.5902 31.7891 32.7979 33.8824 27.782C34.0193 27.4299 34.6003 25.8438 34.6003 24.4436C34.6003 23.0364 33.8047 22.4531 33.2981 22.4531Z" fill="#F8FAFC"/>
</svg>
