<svg width="106" height="36" viewBox="0 0 106 36" fill="none" xmlns="http://www.w3.org/2000/svg">
<path fill-rule="evenodd" clip-rule="evenodd" d="M13.7883 12.7403V16.425L22.5888 16.4212C22.319 18.4534 21.634 19.9414 20.5927 20.9829C19.3094 22.2672 17.3064 23.6808 13.7883 23.6808C8.36585 23.6808 4.12302 19.3072 4.12302 13.8799C4.12302 8.4527 8.36585 4.07886 13.7883 4.07886C16.7148 4.07886 18.851 5.23008 20.4285 6.7102L23.0264 4.11019C20.8279 2.00745 17.9014 0.394165 13.7918 0.394165C6.36637 0.394165 0.120605 6.44785 0.120605 13.8799C0.120605 21.3119 6.36637 27.3655 13.7918 27.3655C17.7993 27.3655 20.8246 26.0499 23.1907 23.5831C25.6244 21.1474 26.3802 17.7291 26.3802 14.9645C26.3802 14.1422 26.3179 13.3827 26.1968 12.7403H13.7883ZM88.0215 26.8369V1.38476H84.3045V26.8369H88.0215ZM36.5661 27.3694C41.3624 27.3694 45.2715 23.6847 45.2715 18.6843C45.2715 13.6487 41.3624 9.99931 36.5661 9.99931C31.7681 9.99931 27.859 13.6487 27.859 18.6843C27.859 23.6847 31.7681 27.3694 36.5661 27.3694ZM36.5661 13.4216C39.1951 13.4216 41.461 15.5596 41.461 18.6843C41.461 21.7739 39.1951 23.9471 36.5661 23.9471C33.937 23.9471 31.6711 21.7778 31.6711 18.6843C31.6711 15.5596 33.937 13.4216 36.5661 13.4216ZM55.3484 27.3694C60.1447 27.3694 64.0537 23.6847 64.0537 18.6843C64.0537 13.6487 60.1447 9.99931 55.3484 9.99931C50.5504 9.99931 46.6413 13.6526 46.6413 18.6843C46.6413 23.6847 50.5504 27.3694 55.3484 27.3694ZM55.3484 13.4216C57.9774 13.4216 60.2433 15.5596 60.2433 18.6843C60.2433 21.7739 57.9774 23.9471 55.3484 23.9471C52.7193 23.9471 50.4534 21.7778 50.4534 18.6843C50.4534 15.5596 52.7193 13.4216 55.3484 13.4216ZM82.0542 10.5279V26.1163C82.0542 32.5303 78.2732 35.15 73.8055 35.15C69.5989 35.15 67.0667 32.3345 66.112 30.0322L69.4295 28.6499C70.021 30.0635 71.4688 31.7315 73.8003 31.7315C76.6612 31.7315 78.434 29.9655 78.434 26.6411V25.392H78.3008C77.4481 26.4453 75.8049 27.3655 73.7311 27.3655C69.3914 27.3655 65.4149 23.5829 65.4149 18.7157C65.4149 13.8133 69.3914 9.99931 73.7311 9.99931C75.7997 9.99931 77.4447 10.9194 78.3008 11.9415H78.434V10.5279H82.0542ZM78.7038 18.7157C78.7038 15.6575 76.6646 13.4216 74.0701 13.4216C71.4411 13.4216 69.2392 15.6575 69.2392 18.7157C69.2392 21.7427 71.4411 23.9471 74.0701 23.9471C76.6646 23.9471 78.7038 21.7427 78.7038 18.7157ZM102.507 21.5428L105.465 23.5165C104.51 24.93 102.21 27.3655 98.2334 27.3655C93.3039 27.3655 89.6214 23.5517 89.6214 18.6806C89.6214 13.5157 93.335 9.99549 97.8078 9.99549C102.312 9.99549 104.514 13.5823 105.235 15.5206L105.629 16.5075L94.0268 21.3158C94.9159 23.0583 96.2961 23.9472 98.2334 23.9472C100.174 23.9472 101.521 22.9918 102.507 21.5428ZM93.4007 18.4181L101.156 15.1955C100.731 14.1108 99.4476 13.3551 97.9358 13.3551C96.0004 13.3551 93.3039 15.0663 93.4007 18.4181Z" fill="#F8FAFC"/>
</svg>
