<svg width="143" height="32" viewBox="0 0 143 32" fill="none" xmlns="http://www.w3.org/2000/svg">
<mask id="mask0_609_4795" style="mask-type:luminance" maskUnits="userSpaceOnUse" x="0" y="0" width="143" height="32">
<path d="M142.056 0.787231H0.887207V31.6677H142.056V0.787231Z" fill="white"/>
</mask>
<g mask="url(#mask0_609_4795)">
<path d="M142.034 15.1666V12.6828H138.951V8.82283L138.848 8.85592L135.952 9.73818H135.897V12.6608H131.327V11.0286C131.327 10.2787 131.503 9.69414 131.834 9.30809C132.165 8.92209 132.65 8.72909 133.246 8.72909C133.686 8.72909 134.15 8.83938 134.591 9.03789L134.702 9.08201V6.47812L134.658 6.45607C134.238 6.30717 133.665 6.22997 132.959 6.22997C132.066 6.22997 131.25 6.42849 130.533 6.81891C129.816 7.19389 129.254 7.75635 128.867 8.46219C128.47 9.16803 128.272 9.98419 128.272 10.8775V12.6641H126.132V15.1456H128.282V25.6008H131.36V15.1456H135.934V21.7849C135.934 24.5201 137.219 25.9096 139.772 25.9096C140.191 25.9096 140.632 25.8567 141.073 25.7663C141.531 25.667 141.845 25.5678 142.021 25.4685L142.065 25.4464V22.9429L141.941 23.0268C141.775 23.137 141.566 23.233 141.324 23.2991C141.081 23.3653 140.871 23.4094 140.715 23.4094C140.119 23.4094 139.678 23.255 139.407 22.9385C139.126 22.6242 138.987 22.0672 138.987 21.2842V15.1743H142.053L142.046 15.1588L142.034 15.1666ZM119.216 23.416C118.099 23.416 117.217 23.0444 116.591 22.3132C115.97 21.5798 115.653 20.5331 115.653 19.2031C115.653 17.8311 115.97 16.7547 116.595 16.0091C117.217 15.268 118.09 14.8908 119.193 14.8908C120.262 14.8908 121.101 15.2504 121.718 15.9607C122.336 16.6753 122.645 17.7407 122.645 19.1281C122.645 20.5331 122.358 21.6128 121.785 22.3341C121.211 23.051 120.351 23.415 119.226 23.415L119.216 23.416ZM119.358 12.3719C117.23 12.3719 115.533 12.9961 114.325 14.2291C113.123 15.4643 112.507 17.1694 112.507 19.3023C112.507 21.3316 113.103 22.9584 114.286 24.144C115.466 25.3351 117.073 25.9526 119.058 25.9526C121.122 25.9526 122.786 25.313 123.99 24.0723C125.203 22.8238 125.805 21.132 125.805 19.0508C125.805 16.9929 125.232 15.3496 124.096 14.1762C122.96 12.9917 121.368 12.3939 119.354 12.3939L119.358 12.3719ZM107.531 12.3939C106.075 12.3939 104.879 12.7645 103.957 13.4968C103.04 14.2335 102.568 15.1953 102.568 16.3643C102.568 16.9753 102.672 17.5113 102.872 17.9745C103.071 18.4311 103.379 18.8348 103.792 19.1744C104.2 19.5053 104.829 19.8582 105.667 20.2199C106.373 20.5067 106.892 20.7493 107.227 20.9479C107.557 21.132 107.791 21.3228 107.91 21.507C108.043 21.6834 108.108 21.9371 108.108 22.2349C108.108 23.1105 107.46 23.5319 106.124 23.5319C105.625 23.5319 105.058 23.4282 104.438 23.2231C103.813 23.0201 103.233 22.7268 102.71 22.3496L102.577 22.2614V25.2171L102.622 25.2391C103.063 25.4377 103.607 25.6141 104.255 25.7464C104.899 25.8898 105.489 25.956 105.997 25.956C107.574 25.956 108.843 25.581 109.769 24.8487C110.695 24.1076 111.169 23.1172 111.169 21.9106C111.169 21.0393 110.916 20.2894 110.414 19.6884C109.917 19.0861 109.057 18.537 107.852 18.0517C106.9 17.6657 106.286 17.3458 106.021 17.1032C105.778 16.865 105.664 16.5297 105.664 16.1062C105.664 15.7312 105.82 15.429 106.133 15.1864C106.449 14.9382 106.89 14.8148 107.441 14.8148C107.954 14.8148 108.478 14.8919 109.007 15.0518C109.526 15.2151 109.984 15.4269 110.364 15.6871L110.493 15.7754V12.952L110.449 12.9299C110.09 12.7755 109.626 12.6465 109.059 12.5439C108.497 12.4369 107.986 12.3895 107.543 12.3895L107.531 12.3939ZM94.529 23.4293C93.4151 23.4293 92.5328 23.0609 91.9152 22.3264C91.2865 21.5985 90.9722 20.5508 90.9722 19.2163C90.9722 17.8487 91.2876 16.768 91.9141 16.0257C92.5317 15.2846 93.4073 14.9074 94.5058 14.9074C95.5755 14.9074 96.4244 15.2669 97.0371 15.9771C97.646 16.6941 97.9632 17.7594 97.9632 19.1468C97.9632 20.5497 97.6657 21.6283 97.0917 22.3507C96.5298 23.0675 95.6696 23.4315 94.5334 23.4315L94.529 23.4293ZM94.6878 12.3918C92.5482 12.3918 90.8498 13.0137 89.6476 14.2468C88.4378 15.482 87.8279 17.1859 87.8279 19.32C87.8279 21.3492 88.4234 22.9749 89.5958 24.1616C90.7781 25.3527 92.3817 25.9703 94.3658 25.9703C96.4395 25.9703 98.094 25.3306 99.3071 24.0844C100.514 22.8338 101.126 21.1419 101.126 19.0608C101.126 17.0017 100.553 15.3585 99.4275 14.1861C98.2916 13.0005 96.6973 12.4028 94.6856 12.4028L94.6878 12.3918ZM83.1737 14.9482V12.6983H80.1297V25.635H83.1737V19.0178C83.1737 17.8929 83.4274 16.9664 83.9314 16.2662C84.4277 15.5691 85.0895 15.2294 85.8945 15.2294C86.1703 15.2294 86.4791 15.2736 86.8188 15.3617C87.1496 15.45 87.3878 15.5382 87.5247 15.6485L87.657 15.7368V12.6708L87.6084 12.6487C87.3216 12.5208 86.9247 12.4591 86.4173 12.4591C85.6563 12.4591 84.9725 12.7061 84.3858 13.1869C83.8674 13.6148 83.4958 14.1971 83.2112 14.9251H83.1561L83.1837 14.9471L83.1737 14.9482ZM74.6595 12.3895C73.2588 12.3895 72.0125 12.6818 70.9538 13.2718C69.8863 13.8673 69.0678 14.7056 68.5054 15.7864C67.9539 16.8561 67.6672 18.1079 67.6672 19.503C67.6672 20.7273 67.9452 21.8456 68.4833 22.8359C69.0281 23.8285 69.7958 24.6005 70.7663 25.1409C71.7302 25.6737 72.8508 25.946 74.0904 25.946C75.5373 25.946 76.7704 25.6593 77.763 25.0858L77.8072 25.0637V22.2713L77.6747 22.3628C77.2259 22.6936 76.7263 22.9528 76.1859 23.1404C75.6476 23.3278 75.158 23.4227 74.73 23.4227C73.5324 23.4227 72.5751 23.0477 71.8781 22.3143C71.1722 21.5643 70.8193 20.5276 70.8193 19.2263C70.8193 17.9028 71.1942 16.844 71.9177 16.072C72.6456 15.278 73.603 14.8809 74.7742 14.8809C75.7668 14.8809 76.745 15.2228 77.667 15.8845L77.7994 15.9727V13.0392L77.763 13.017C77.4155 12.8186 76.9436 12.6641 76.3513 12.5384C75.7712 12.4171 75.1999 12.3575 74.655 12.3575L74.6595 12.3895ZM65.5783 12.6664H62.5388V25.6141H65.5828V12.6664H65.5783ZM64.0785 7.16301C63.5777 7.16301 63.141 7.33285 62.7814 7.67033C62.4219 8.01001 62.2388 8.43572 62.2388 8.93864C62.2388 9.43495 62.423 9.85403 62.7792 10.1848C63.1322 10.5157 63.5733 10.6789 64.0806 10.6789C64.588 10.6789 65.0291 10.5136 65.3876 10.1827C65.7493 9.85178 65.9324 9.4327 65.9324 8.93642C65.9324 8.45116 65.7559 8.03207 65.403 7.67915C65.0501 7.34829 64.6089 7.17183 64.0795 7.17183L64.0785 7.16301ZM56.4807 11.7267V25.6229H59.5908V7.581H55.2896L49.838 20.9897L44.5332 7.57878H40.0621V25.635H42.9847V11.7444H43.084L48.6866 25.6384H50.8869L56.4012 11.7454H56.5061L56.4895 11.7388L56.4807 11.7267ZM16.6997 17.3404H31.0151V31.6678H16.6776L16.6975 17.3502L16.6997 17.3404ZM0.887712 17.3491H15.2009V31.6678H0.883301L0.887712 17.3502V17.3491ZM16.7009 1.53724H31.0162V15.8525H16.692L16.7009 1.53284V1.53724ZM0.887712 1.53504H15.2009V15.8525H0.883301L0.887712 1.53284V1.53504Z" fill="#F8FAFC"/>
</g>
</svg>
