<svg width="118" height="36" viewBox="0 0 118 36" fill="none" xmlns="http://www.w3.org/2000/svg">
<path d="M48.0727 16.4797C51.7623 17.3766 53.2665 18.7693 53.2665 21.2873C53.2665 24.2666 50.9902 26.1918 47.4672 26.1918C44.977 26.1918 42.6685 25.3072 40.7922 23.632C40.7537 23.5977 40.7301 23.5496 40.7266 23.4981C40.723 23.4466 40.7398 23.3957 40.7732 23.3564L42.4312 21.3842C42.4481 21.3641 42.4689 21.3475 42.4923 21.3354C42.5157 21.3234 42.5413 21.3161 42.5674 21.314C42.5936 21.3119 42.6201 21.3152 42.6451 21.3234C42.6701 21.3316 42.6932 21.3447 42.7131 21.362C44.3258 22.758 45.7676 23.353 47.5346 23.353C49.1261 23.353 50.115 22.6639 50.115 21.5564C50.115 20.5564 49.6259 19.9977 46.728 19.3303C43.3242 18.5069 41.3538 17.4418 41.3538 14.4307C41.3538 11.6231 43.6378 9.66214 46.9067 9.66214C49.1296 9.66214 51.033 10.3206 52.7227 11.676C52.8041 11.7417 52.8207 11.8599 52.76 11.9456L51.2809 14.0291C51.2655 14.0506 51.246 14.0686 51.2234 14.0825C51.201 14.0963 51.176 14.1056 51.1498 14.1098C51.1238 14.1138 51.0971 14.1128 51.0714 14.1066C51.0457 14.1005 51.0216 14.0892 51.0002 14.0737C49.5808 13.0152 48.227 12.5016 46.8611 12.5016C45.4528 12.5016 44.5057 13.1784 44.5057 14.1839C44.5057 15.248 45.0461 15.755 48.0733 16.478L48.0727 16.4797ZM61.2365 13.4937C59.7102 13.4937 58.4578 14.0954 57.4245 15.3265V13.9394C57.4245 13.8869 57.4035 13.8364 57.3664 13.7992C57.3292 13.762 57.2788 13.7411 57.2261 13.7411H54.5154C54.4627 13.7411 54.4123 13.762 54.3751 13.7992C54.338 13.8364 54.317 13.8869 54.317 13.9394V29.3538C54.317 29.4625 54.4062 29.5516 54.5154 29.5516H57.2267C57.3365 29.5516 57.4256 29.4625 57.4256 29.3534V24.4872C58.4584 25.646 59.7113 26.213 61.2382 26.213C64.0765 26.213 66.9484 24.0293 66.9484 19.8534C66.9484 15.6775 64.0749 13.4937 61.2365 13.4937ZM63.7936 19.854C63.7936 21.9798 62.4845 23.4638 60.6093 23.4638C58.7542 23.4638 57.356 21.9124 57.356 19.854C57.356 17.7955 58.7542 16.2441 60.6093 16.2441C62.4543 16.2441 63.7936 17.7621 63.7936 19.854ZM74.3096 13.4937C70.6552 13.4937 67.7929 16.307 67.7929 19.9002C67.7929 23.4533 70.6351 26.237 74.2639 26.237C77.9313 26.237 80.8024 23.4326 80.8024 19.854C80.8024 16.2875 77.9507 13.4937 74.3096 13.4937ZM74.309 23.4856C72.3648 23.4856 70.8997 21.9241 70.8997 19.8534C70.8997 17.7743 72.3147 16.2658 74.2645 16.2658C76.2199 16.2658 77.6961 17.8273 77.6961 19.8991C77.6961 21.977 76.2711 23.4856 74.309 23.4856ZM88.6061 13.7411C88.7158 13.7411 88.8043 13.8302 88.8043 13.9394V16.2697C88.8044 16.2957 88.7993 16.3215 88.7895 16.3456C88.7795 16.3696 88.765 16.3915 88.7466 16.4099C88.7283 16.4284 88.7064 16.4429 88.6824 16.4529C88.6583 16.4628 88.6326 16.468 88.6065 16.468H85.6234V22.0728C85.6234 22.9586 86.0123 23.353 86.8824 23.353C87.4361 23.356 87.9821 23.224 88.4734 22.9686C88.5038 22.9536 88.5375 22.9465 88.5714 22.9481C88.6052 22.9497 88.6382 22.9598 88.667 22.9777C88.6958 22.9955 88.7195 23.0204 88.7361 23.05C88.7526 23.0797 88.7613 23.113 88.7614 23.1468V25.3652C88.7614 25.436 88.7225 25.5027 88.6612 25.5379C87.9008 25.9684 87.0941 26.169 86.1208 26.169C83.7293 26.169 82.5165 24.934 82.5165 22.4968V16.4685H81.213C81.187 16.4685 81.1613 16.4633 81.1373 16.4533C81.1133 16.4433 81.0916 16.4286 81.0733 16.4103C81.055 16.3918 81.0405 16.37 81.0306 16.3459C81.0208 16.322 81.0157 16.2962 81.0158 16.2702V13.9394C81.0158 13.8302 81.1038 13.7411 81.213 13.7411H82.5165V10.6905C82.5165 10.5813 82.6057 10.4922 82.716 10.4922H85.4267C85.5365 10.4922 85.6251 10.5813 85.6251 10.6905V13.7411H88.6082H88.6061ZM103.634 13.7528C103.715 13.7528 103.789 13.8029 103.818 13.8809L106.985 22.1446L109.877 13.8853C109.891 13.8464 109.916 13.8126 109.95 13.7886C109.984 13.7647 110.023 13.7518 110.065 13.7517H112.887C112.919 13.7517 112.952 13.7595 112.98 13.7747C113.009 13.7898 113.033 13.8117 113.051 13.8385C113.07 13.8653 113.081 13.8961 113.084 13.9283C113.088 13.9605 113.083 13.993 113.071 14.023L108.368 26.1785C107.393 28.687 106.285 29.6196 104.284 29.6196C103.213 29.6196 102.347 29.3979 101.387 28.8786C101.343 28.8549 101.31 28.815 101.294 28.7673C101.278 28.7197 101.282 28.6679 101.302 28.6224L102.221 26.6058C102.233 26.5809 102.249 26.5586 102.27 26.5403C102.289 26.5219 102.313 26.5078 102.339 26.4989C102.364 26.4905 102.392 26.4876 102.419 26.4901C102.447 26.4927 102.473 26.5008 102.497 26.5138C103.011 26.7952 103.514 26.9373 103.993 26.9373C104.583 26.9373 105.016 26.7434 105.456 25.7663L101.579 16.4685H99.0468V25.769C99.0468 25.8788 98.9577 25.9679 98.8488 25.9679H96.1375C96.111 25.9679 96.0854 25.9628 96.0608 25.9528C96.0371 25.9428 96.0153 25.9281 95.9964 25.9096C95.9784 25.8911 95.9642 25.8693 95.9537 25.8451C95.9443 25.8209 95.9386 25.7952 95.9386 25.769V16.4685H94.6364C94.5838 16.4681 94.5335 16.447 94.4963 16.4099C94.459 16.3727 94.438 16.3223 94.4375 16.2697V13.9283C94.4375 13.8186 94.5267 13.7294 94.6358 13.7294H95.9386V13.1556C95.9386 10.4894 97.262 9.07888 99.7667 9.07888C100.796 9.07888 101.482 9.24321 102.02 9.40198C102.105 9.42817 102.161 9.50564 102.161 9.59251V11.8765C102.162 11.9082 102.154 11.9393 102.14 11.9676C102.126 11.9958 102.105 12.0202 102.079 12.0388C102.055 12.0574 102.024 12.0695 101.993 12.0742C101.962 12.079 101.93 12.0761 101.9 12.066C101.391 11.8966 100.938 11.7841 100.373 11.7841C99.4257 11.7841 99.0023 12.276 99.0023 13.3784V13.7528H103.633H103.634ZM92.9752 13.7411C93.0844 13.7411 93.1735 13.8302 93.1735 13.9394V25.7685C93.1735 25.8777 93.0844 25.9668 92.9747 25.9668H90.2633C90.2106 25.9668 90.1602 25.9459 90.1229 25.9088C90.0856 25.8715 90.0646 25.8211 90.0645 25.7685V13.9394C90.0645 13.8302 90.1536 13.7411 90.2627 13.7411H92.9741H92.9752ZM91.6332 8.35523C92.1488 8.35523 92.6434 8.56006 93.0079 8.92467C93.3725 9.28929 93.5774 9.78378 93.5774 10.2994C93.5774 10.815 93.3725 11.3096 93.0079 11.6742C92.6434 12.0388 92.1488 12.2436 91.6332 12.2436C91.1175 12.2436 90.623 12.0388 90.2584 11.6742C89.8939 11.3096 89.6889 10.815 89.6889 10.2994C89.6889 9.78378 89.8939 9.28929 90.2584 8.92467C90.623 8.56006 91.1175 8.35523 91.6332 8.35523ZM115.386 17.5437C115.135 17.5447 114.887 17.496 114.655 17.4004C114.423 17.3049 114.212 17.1644 114.034 16.987C113.857 16.8097 113.717 16.599 113.621 16.3671C113.526 16.1351 113.477 15.8866 113.478 15.6357C113.478 15.3839 113.528 15.1345 113.624 14.9018C113.72 14.6692 113.862 14.4577 114.04 14.2797C114.218 14.1016 114.43 13.9604 114.663 13.864C114.895 13.7677 115.144 13.7181 115.396 13.7182C115.647 13.7172 115.895 13.7657 116.127 13.8611C116.359 13.9566 116.57 14.097 116.748 14.2742C116.925 14.4516 117.065 14.6622 117.161 14.8941C117.256 15.1259 117.305 15.3744 117.304 15.6251C117.304 15.8771 117.254 16.1266 117.158 16.3594C117.062 16.5922 116.921 16.8038 116.743 16.982C116.565 17.1602 116.353 17.3015 116.121 17.398C115.887 17.4945 115.638 17.5436 115.386 17.5437ZM115.396 13.9083C114.419 13.9083 113.679 14.6854 113.679 15.6363C113.679 16.5872 114.413 17.3538 115.386 17.3538C116.363 17.3538 117.104 16.5772 117.104 15.6257C117.104 14.6748 116.368 13.9083 115.396 13.9083ZM115.819 15.8218L116.358 16.5772H115.904L115.419 15.8842H115.001V16.5772H114.62V14.5745H115.513C115.977 14.5745 116.284 14.813 116.284 15.2135C116.284 15.5421 116.095 15.7427 115.819 15.8206V15.8218ZM115.496 14.9182H115V15.551H115.496C115.744 15.551 115.891 15.4296 115.891 15.2335C115.891 15.0274 115.744 14.9182 115.496 14.9182ZM17.8973 0.289795C8.21186 0.289795 0.360352 8.25049 0.360352 17.9365C0.359795 27.0375 7.29101 34.3843 16.1631 35.4985H19.6315C28.5036 34.3843 35.4348 27.0375 35.4348 17.9359C35.4348 8.25049 27.5821 0.289795 17.8973 0.289795ZM25.9398 25.5847C25.8652 25.7074 25.767 25.8141 25.651 25.8987C25.535 25.9834 25.4034 26.0444 25.2637 26.0781C25.1241 26.1119 24.9793 26.1177 24.8373 26.0954C24.6954 26.073 24.5594 26.0229 24.4369 25.9479C20.3184 23.431 15.1353 22.8627 9.03077 24.2571C8.89089 24.2893 8.74604 24.2936 8.60451 24.2697C8.46298 24.2458 8.32754 24.1943 8.20595 24.118C8.08436 24.0418 7.979 23.9422 7.89589 23.8252C7.81279 23.7082 7.75357 23.576 7.72163 23.4359C7.68949 23.296 7.68527 23.1511 7.70922 23.0096C7.73316 22.8679 7.7848 22.7325 7.86118 22.6108C7.93755 22.4893 8.03717 22.3839 8.15432 22.3009C8.27147 22.2178 8.40385 22.1587 8.54388 22.1268C15.2244 20.6004 20.9545 21.2578 25.5772 24.0822C25.8244 24.2337 26.0013 24.477 26.0692 24.7588C26.1371 25.0406 26.0909 25.3372 25.9398 25.5847ZM28.0857 20.8094C27.896 21.1182 27.5914 21.3391 27.2388 21.4235C26.8863 21.5079 26.5147 21.4489 26.2056 21.2595C21.4927 18.3626 14.3063 17.5231 8.72995 19.2161C8.38289 19.3208 8.00848 19.2838 7.68867 19.1131C7.36886 18.9424 7.12973 18.6519 7.02361 18.3053C6.80635 17.5811 7.21302 16.8195 7.93555 16.6006C14.3058 14.6676 22.2236 15.6034 27.6367 18.9292C27.9455 19.1191 28.1664 19.4237 28.2507 19.7762C28.335 20.1288 28.2753 20.5004 28.0857 20.8094ZM28.2707 15.8368C22.6175 12.4799 13.293 12.1712 7.89655 13.8091C7.4802 13.9353 7.03078 13.8908 6.64716 13.6856C6.26353 13.4805 5.97713 13.1313 5.85095 12.7149C5.72478 12.2986 5.76916 11.8491 5.97434 11.4656C6.17954 11.0819 6.52871 10.7955 6.94506 10.6693C13.1398 8.78919 23.438 9.15241 29.9458 13.0146C30.1311 13.1245 30.293 13.2699 30.4221 13.4423C30.5513 13.6148 30.6451 13.811 30.6985 14.0197C30.7517 14.2285 30.7634 14.4456 30.7327 14.6588C30.702 14.8721 30.6296 15.0773 30.5196 15.2625C30.4098 15.448 30.2645 15.6099 30.092 15.7391C29.9195 15.8683 29.7233 15.9623 29.5144 16.0156C29.3056 16.0688 29.0883 16.0805 28.875 16.0497C28.6617 16.0189 28.456 15.947 28.2707 15.8368Z" fill="#F8FAFC"/>
</svg>
